<svg xmlns="http://www.w3.org/2000/svg" viewBox="0 0 2329.18 2598.01"><defs><style>.cls-1{fill:#010101;}</style></defs><g id="Layer_2" data-name="Layer 2"><g id="Notification"><path class="cls-1" d="M2259.83,1595.66l-7.82-7.82-150.57-150.58a140,140,0,0,1-41-99V1075c-.55-441.37-321.34-813.73-751.64-884.12a65.05,65.05,0,0,1-54.62-64.16V85a85,85,0,0,0-85-85H1160a85,85,0,0,0-85,85v41.73a65.05,65.05,0,0,1-54.62,64.16A894.12,894.12,0,0,0,599,380.75l-.22.19c-1.22,1-2.49,2.08-3.79,3.1q-9.25,7.65-18.3,15.53c-16.93,19.42-21.1,39.26-21.1,60.22a88.82,88.82,0,0,0,88.83,88.82c20.58,0,44-9.5,59.07-21.25,1.62-1.46,5.06-4.18,8.2-6.69l.17-.13q2.52-2.09,5.06-4.11l.1-.09.18-.15a8.69,8.69,0,0,1,.84-.66,710.89,710.89,0,0,1,453.76-157.16c392.48,3.88,709.45,323.24,709.45,716.64v358.34a89.6,89.6,0,0,0,26.25,63.33l52.16,52.16,161.06,161.06a100,100,0,0,1,29.28,70.71v10.66a90,90,0,0,1-90,90H269.17a90,90,0,0,1-90-90v-10.66a100,100,0,0,1,29.28-70.71l161.06-161.06,52.16-52.16a89.62,89.62,0,0,0,26.25-63.33V1078.67a726.84,726.84,0,0,1,6-93.26,132.9,132.9,0,0,1,2.75-19.25L457,964l2.95-18.67c.38-1.8.28-1.6.68-3.39,1-5.37.57-14.92.57-20.58A88.15,88.15,0,0,0,306,864.11c-8.81,10.31-16.79,24.66-20.11,38.26-.31,1.4-1.18,4.53-1.18,4.53a895.13,895.13,0,0,0-14.07,110.33q-1.87,28.66-1.92,57.78v263.26a140,140,0,0,1-41,99L77.24,1587.77l-.07.07-7.88,7.88L69,1596A249.2,249.2,0,0,0,0,1768.48v62c0,127,103,230,230,230H647.06A69.61,69.61,0,0,1,716.67,2130c0,2.68-.07,5.37-.07,8,0,231.85,172.38,428.3,403.2,457.71,246.47,24.44,466.08-155.55,490.52-402q2.16-21.81,2.19-43.75v-9.59a80,80,0,0,1,80-80h406.67c127,0,230-103,230-230v-62A249.18,249.18,0,0,0,2259.83,1595.66ZM1183.12,2418.14c-157.92,10.76-287.28-112.25-287.28-270.54A87.16,87.16,0,0,1,983,2060.43h360.76a89.59,89.59,0,0,1,89.58,89.59C1433.34,2292.22,1322.9,2408.62,1183.12,2418.14Z"/></g></g></svg>