<svg xmlns="http://www.w3.org/2000/svg" viewBox="0 0 2598.01 2319.65"><defs><style>.cls-1{fill:#010101;}</style></defs><g id="Layer_2" data-name="Layer 2"><g id="wallet"><path class="cls-1" d="M2041.3,1391.79v0a92.79,92.79,0,0,1-185.57,0v0a92.79,92.79,0,1,1,185.57,0Z"/><path class="cls-1" d="M2134.08,0H278.36c-1.71,0-3.42,0-5.13.05H2126.65q9.21,0,18.29.59A90.62,90.62,0,0,0,2134.08,0Z"/><path d="M2405,477.27V278.41c0-147.6-114.87-268.35-260.07-277.77q-9.08-.58-18.29-.59H273.23C136.58,2.52,24,103.46,3.38,234.93A278.79,278.79,0,0,0,0,278.36v766.16c5.08,46.34,45,82.41,92.86,82.41,46.23,0,85.46-33.61,92.72-77.62v-307c0-.79,0-1.57,0-2.35v0a92.78,92.78,0,0,1,92.75-90.4h2041.3a92.72,92.72,0,0,1,92.78,92.79v92.78a92.72,92.72,0,0,1-92.78,92.79H1762.94a277.66,277.66,0,0,0-98.49,17.93c-90.7,34.32-158.79,114.66-175.76,212.54a279.85,279.85,0,0,0-4.11,47.89v371.14a277.93,277.93,0,0,0,15.86,92.84c38.22,108.09,141.32,185.52,262.5,185.52h556.72a92.78,92.78,0,0,1,92.78,92.79v92.78a92.78,92.78,0,0,1-92.78,92.79H278.36a92.78,92.78,0,0,1-92.78-92.79V1529.35c-7.26-44.22-46.49-78-92.72-78C45,1451.37,5.08,1487.6,0,1534.16v507.13c0,123.89,80.93,228.87,192.81,265a278,278,0,0,0,85.55,13.4h2041.3c153.73,0,278.35-124.62,278.35-278.36v-1299C2598,618.33,2517,513.3,2405,477.27ZM2219.44,371.19a92.78,92.78,0,0,1-89.86,92.74H278.36a92.78,92.78,0,0,1-92.78-92.79V278.36a92.78,92.78,0,0,1,89.86-92.74H2126.65a92.79,92.79,0,0,1,92.79,92.79Zm193,1206.17a92.77,92.77,0,0,1-92.78,92.79H1762.94a92.79,92.79,0,0,1-92.79-92.79V1206.22a92.79,92.79,0,0,1,92.79-92.79h556.72a92.72,92.72,0,0,1,92.78,92.79Z"/></g></g></svg>