<svg xmlns="http://www.w3.org/2000/svg" xmlns:xlink="http://www.w3.org/1999/xlink" viewBox="0 0 3000 3000"><defs><style>.cls-1{fill:url(#linear-gradient);}</style><linearGradient id="linear-gradient" x1="1500" x2="1500" y2="3000" gradientUnits="userSpaceOnUse"><stop offset="0" stop-color="#fff"/><stop offset="0.17" stop-color="#f9f9f9"/><stop offset="0.41" stop-color="#e7e7e7"/><stop offset="0.68" stop-color="#cacaca"/><stop offset="0.98" stop-color="#a2a2a2"/><stop offset="1" stop-color="#9f9f9f"/></linearGradient></defs><g id="Layer_2" data-name="Layer 2"><g id="Layer_4" data-name="Layer 4"><path class="cls-1" d="M2801,227.55l-1.24-1.25-6.84-6.91-12.16-12.28-2.44-2.46q-2.92-2.82-5.88-5.61A729.48,729.48,0,0,0,2452.24,22.42c-1.38-.35-2.77-.71-4.17-1.05-.88-.23-1.76-.44-2.64-.66A713.5,713.5,0,0,0,2277.65,0H723.11C531.72,0,357.23,75.89,227.55,199l-1.25,1.24-6.91,6.84-12.28,12.16-2.46,2.44q-2.82,2.92-5.61,5.88A729.48,729.48,0,0,0,22.42,547.76c-.35,1.38-.71,2.77-1.05,4.17q-.35,1.32-.66,2.64A713.5,713.5,0,0,0,0,722.35c0,1.06,0,2.13,0,3.2V2276.89c0,191.39,75.89,365.88,199,495.56l1.24,1.25,6.84,6.91,12.16,12.28,2.44,2.46q2.92,2.82,5.88,5.61a729.48,729.48,0,0,0,320.17,176.62c1.38.35,2.77.71,4.17,1.05.88.23,1.76.44,2.64.66A713.5,713.5,0,0,0,722.35,3000H2276.89c191.39,0,365.88-75.89,495.56-199l1.25-1.24,6.91-6.84,12.28-12.16,2.46-2.44q2.82-2.92,5.61-5.88a729.48,729.48,0,0,0,176.62-320.17c.35-1.38.71-2.77,1.05-4.17.23-.88.44-1.76.66-2.64a713.5,713.5,0,0,0,20.7-167.78c0-1.07,0-2.13,0-3.2V723.11C3000,531.72,2924.11,357.23,2801,227.55Z"/></g><g id="Edited"><path d="M2731.66,1660.09c-133.72-14.32-140.73-132.83-287.3-141.57a7.3,7.3,0,0,1-4.47-12.69c37.22-33.95,70.79-69.07,123.29-75.1a7.33,7.33,0,0,0,4.66-12c-87.43-103.33-225.26-90-348.11-74a7.31,7.31,0,0,1-5.86-12.66c28.16-25.54,67.3-54.37,107.92-69.59a7.32,7.32,0,0,0-.5-13.84c-342.93-104.09-729.65-11.32-928.3,303.47-.39.61-.78,1.2-1.22,1.77-1.85,2.41-3.89,4.7-6.17,7.21a7.33,7.33,0,0,1-11.25-.51l-19-25c-.34-.45-.64-.93-1-1.38C1227.65,1357.55,978,1351.8,857.73,1586.3c-4.07,7.94,7,9.29,14,3.87,241-184.57,340.39,22.67,409.06,115.41,3.84,4.43,3.37,17.88-.53,22.87-83.45,119.91-195.84,233.73-356.44,196.1-278.42-53.09-271.09-424-70.06-554.07.49-.32,1-.66,1.46-1,114.19-87.07,292-143.42,343.62-288.88.17-.46.35-.93.54-1.38,11.77-27.58,20.45-30.15,23.84,16.49.57,8-4.34,31.36,11,1.3,6.72-13.13,10.42-36.15,7.15-54-1.29-7-3.32-18.83,3-12.22,5,5.27,11.76,20.55,15.83,35.09,1.65,5.82,2.75,20.76,13.12-.32,112.25-228.18-246.85-449.23-384-193.72-.12.22-.23.45-.33.68-20.92,51.27-120.57-3.23-157.74,30.24-20.09,18.08-6.82,28.89,11.12,34.8.26.08,12.7,2.38,13,2.42,184.55,29.63,310,77.64,330.48,61.27,5.17-4.14,4.61,8.28.64,13.58-47.38,63.27-244.36-81.7-347.1-47.76a7.31,7.31,0,0,0-.84,13.52c14.2,6.63,28.72,2.3,69.08,11.3,146.07,32.57,257.81,113,71.27,203.34C136.18,1531.11,751.24,2508,1334.7,1913.7c18.54-20.37,36.76-41,53-59.3a7.3,7.3,0,0,1,10.52-.4c64.71,62.14,126.86,124.49,192.19,183.32,171.75,160.81,447,135.72,602.5-34.49.51-.56,2.13-2.33,2.69-2.83,44.45-39.15,98.28-41.77,192.76-61.4,74.81-15.53,122.42-64.61,141.93-95.92a6.12,6.12,0,0,0-5-9.36c-19.24-.35-35.22-.86-68.66-10.5-30.85-8.89-71.67-32.61-67.81-32.8,143.57-6.63,216.12,35,347.62-117.88A7.32,7.32,0,0,0,2731.66,1660.09ZM1058,949.15c-15.88-2-25.73-27.36-22-56.57s19.66-51.23,35.54-49.19,25.73,27.36,22,56.57S1073.86,951.19,1058,949.15Zm775.41,1040.3c-143.6-15.67-293.6-213.31-331.09-261.92l0,0c-.53-.77-10.44-15.4-3.38-28.58.83-1.24,1.67-2.49,2.52-3.73,91.35-135.18,217.46-280.25,391.75-289.2a10.1,10.1,0,0,1,1.1,0C2367.31,1430.86,2214,2058.22,1833.39,1989.45Z"/><path d="M2569.36,1524.76a1.68,1.68,0,0,1,.27-3.31c45-4,87.72.38,126.33,28.19,21.58,15.55,27.83,40.87,66.8,41.18,1.31,0,1.17,2.29.1,3-28.46,19.58-80.13,15.89-109.1-14C2629.34,1554.62,2603.47,1533.46,2569.36,1524.76Z"/><path d="M2374.75,1291.24a3,3,0,0,1-2.16-5.5c26.55-17.24,51.89-25.78,80-10.46,20.51,11.18,44.59,41.9,63.44,38.43,2.16-.4,1.95,3.75-.09,4.54-14.35,5.56-32.14,4-48.36-4.71C2438.9,1298.1,2410.35,1284.81,2374.75,1291.24Z"/></g></g></svg>