<svg xmlns="http://www.w3.org/2000/svg" viewBox="0 0 2600.5 2601.84"><defs><style>.cls-1{fill:none;}.cls-2{fill:#231f20;}</style></defs><g id="Layer_2" data-name="Layer 2"><g id="Container"><rect class="cls-1" width="2600" height="2601.84"/></g><g id="Layer_27" data-name="Layer 27"><path class="cls-2" d="M2599.46,651l0,0h-.08L2029.33,80.91l-4.77-4.77a108.19,108.19,0,0,0-156,149.57l10.89,10.91,305.78,306.65H108A108.53,108.53,0,0,0,1.49,631v40A108.54,108.54,0,0,0,108,758.8H2185.28L1879.5,1065.44a111.15,111.15,0,0,0-10.89,10.92,108.19,108.19,0,0,0,156,149.57l4.77-4.77,570.09-570.09h.08Z"/><path class="cls-2" d="M2493.89,1843.65H415l306-306.88a110.26,110.26,0,0,0,10.9-10.93,108.27,108.27,0,0,0-156.07-149.68l-4.77,4.77L.58,1951.46H.5l0,0,0,0H.58l570.53,570.52,4.77,4.77A108.27,108.27,0,0,0,732,2377.15l-10.9-10.93L415,2059.34H2493.89a108.63,108.63,0,0,0,106.61-87.82v-40A108.63,108.63,0,0,0,2493.89,1843.65Z"/></g></g></svg>