<svg xmlns="http://www.w3.org/2000/svg" viewBox="0 0 2600 2601.84">
  <path d="M2577.67,1724.54h0l0-.06V976.08a99.59,99.59,0,0,0-198.87-4.16l0,14.2-.56,398.66L1026,32.57A99.93,99.93,0,0,0,899.54,20.35l-13,13,0,0-13,13a99.91,99.91,0,0,0,12.22,126.46l1352.2,1352.21-398.66.56a100.45,100.45,0,0,0-14.2,0,99.59,99.59,0,0,0,4.16,198.87h748.41l.05,0Z"/>
  <path d="M1732.61,2432.15,379.37,1078.91l399-.56a100.59,100.59,0,0,0,14.21,0,99.67,99.67,0,0,0-4.16-199h-749l0,0v0H39.3l.06.05v749a99.67,99.67,0,0,0,199,4.15l0-14.2.56-399L1592.21,2572.56a100,100,0,0,0,126.56,12.23l13-13,0-.06,13-13A100,100,0,0,0,1732.61,2432.15Z"/>
</svg>