<svg xmlns="http://www.w3.org/2000/svg" viewBox="0 0 2600 2601.84">
  <path d="M2541,925.35c206.37,686-182.42,1409.32-868.38,1615.68S263.34,2358.61,57,1672.65c-77.49-257.57-71.07-520.43,3.51-759.21q2.79-9,5.73-17.9a93,93,0,0,1,175.66,59q-2,6.27-4,12.57c-64.34,205-70,430.86-3.45,652.14,176.88,588,796.91,921.21,1384.86,744.33s921.21-796.91,744.33-1384.87S1566.69,57.53,978.73,234.41a1109.55,1109.55,0,0,0-348.17,175.9l0,0q-6.52,4.91-13,9.91A93,93,0,0,1,505.24,272.81q6.21-4.81,12.47-9.53A1294.24,1294.24,0,0,1,925.35,57C1611.31-149.39,2334.67,239.4,2541,925.35Z"/>
  <path d="M1909.16,966.9a93.13,93.13,0,0,1-22.38,60.71l0,0L1876.36,1038l0,0-762.62,762.54L724.64,1411.43,707.22,1394a93.54,93.54,0,0,1-.62-112.83l18.86-18.87a93.57,93.57,0,0,1,111.52-.38l19.74,19.74,257,256.92,625.6-625.68,22.31-22.31h0a93.52,93.52,0,0,1,115,5.45l9.87,9.87A93.11,93.11,0,0,1,1909.16,966.9Z"/>
</svg>