<svg xmlns="http://www.w3.org/2000/svg" viewBox="0 0 922.68 922.73"><defs><style>.cls-1{fill:#231f20;}</style></defs><g id="Layer_2" data-name="Layer 2"><g id="Checkmark"><path class="cls-1" d="M460.47,712.61l.13-.13.28.29L863.75,309.32a50.25,50.25,0,0,0,1.38-65.23L858,237a50.26,50.26,0,0,0-62.47-.92L460.25,571.4l-195-195A50.25,50.25,0,0,0,195,446.85Z"/><path class="cls-1" d="M770.3,803.93A457.69,457.69,0,0,0,814,758.8l.65-.77,2-2.34A461.37,461.37,0,0,0,920.11,412.94c-.13-1.27-.27-2.53-.41-3.8,0-.29-.07-.58-.1-.87A459.72,459.72,0,0,0,809.49,158.76l-1.36-1.56-.06-.06A459.19,459.19,0,0,0,744,96.8l-2.85-2.18-1.06-.81L737.62,92c-.85-.64-1.7-1.28-2.56-1.91l-1.1-.81A461.69,461.69,0,0,0,371.2,9q-12.76,2.55-25.38,5.85A459.64,459.64,0,0,0,193.93,85.6q-2.34,1.66-4.65,3.35l-1.75,1.28-.69.5A462.78,462.78,0,0,0,137.41,133q-5.61,5.53-11,11.26a50.6,50.6,0,0,0,7.37,66.83s0,0,0,0l6.35,4.85a50.6,50.6,0,0,0,57.39-1.77A19.9,19.9,0,0,0,200,212c2.56-2.69,5.16-5.32,7.81-7.92a361.83,361.83,0,0,1,32.89-28.65l.14,0c105-81.12,245.11-96.54,363.52-45.7l1.14.5c2,.84,3.91,1.72,5.85,2.6l2.22,1q2.54,1.17,5,2.38l3.06,1.5,2.52,1.26c1.93,1,3.84,2,5.74,3l1.08.57C726.92,193.46,793.75,285,815.2,389a364.09,364.09,0,0,1-2,154c-.1.45-.2.89-.31,1.34l-.36,1.5q-1,4.13-2.08,8.24C775.31,686.33,670.83,782,546.48,812.36c-101.38,24.4-211.43,4.56-299-59.86l-1.18-.87q-2.73-2-5.42-4.11L239,746q-2-1.56-4-3.15c-1-.81-2-1.63-3-2.45l-2.3-1.91q-2.26-1.89-4.5-3.83l-1.45-1.27A361.65,361.65,0,0,1,110.67,374.87q1.31-5.42,2.81-10.77a19.06,19.06,0,0,0,.64-3.25,50.56,50.56,0,0,0-27.79-50.24l-7.41-3h0a50.57,50.57,0,0,0-61.22,27.81c-.06.21-.11.43-.17.64s-.11.22-.16.34l-1.73,6.53c-.67,2.52-1.32,5-1.93,7.56,0,.06,0,.11,0,.17l0,.06A459.49,459.49,0,0,0,35.63,639c.55,1.34,1.12,2.67,1.69,4l0,.07a453.71,453.71,0,0,0,55.83,96.23l0,.06c.76,1,1.51,2,2.28,3A460.35,460.35,0,0,0,260.18,876.53l.62.3c1.13.55,2.26,1.08,3.4,1.62l2.23,1,1.72.79q11.93,5.49,24.2,10.33a462.33,462.33,0,0,0,233.38,27.57c2.34-.33,4.67-.69,7-1.05l.52-.09,4.19-.67A459.71,459.71,0,0,0,768.06,805.94l1.72-1.53Z"/></g></g></svg>