<svg xmlns="http://www.w3.org/2000/svg" viewBox="0 0 959.8 907.13"><defs><style>.cls-1{fill:#231f20;}</style></defs><g id="Layer_2" data-name="Layer 2"><g id="Heart_all_round" data-name="Heart all round"><path class="cls-1" d="M959.8,311.59C959.8,507.14,831,600.18,790.19,641c-66.06,66.07-237.65,208.1-296,260.63a21.35,21.35,0,0,1-28.56,0c-58.69-52.89-232.37-197-296-260.62-63.33-63.33-83.74-92.1-87.26-97.34a14.66,14.66,0,0,0-.87-1.2c-5.3-6.33-15.34-45.62,2-63,9.8-9.79,20.65-17.38,37.9-17.38,3.88,0,21.74.41,35.85,14.53s83,92.9,126.06,136C318.42,647.77,427.18,741.81,466,775.19a21.36,21.36,0,0,0,27.86,0c38.79-33.38,147.55-127.42,182.68-162.56l79.81-79.81C861.24,427.91,860.23,337.28,860.23,313.06c0-18.17-8.77-212.92-176.12-212.92-91.88,0-157.62,69.92-187.17,109a21.36,21.36,0,0,1-34.08,0c-29.55-39.05-95.29-109-187.17-109-167.35,0-176.12,194.75-176.12,212.92,0,25-17.81,54.92-45.9,54.92S0,354,0,311.59C0,197.37,60.3,117.76,66.54,111.52S145.56,0,276.36,0c95,0,159.7,54.84,188,84.81a21.39,21.39,0,0,0,31.16,0C523.74,54.84,588.4,0,683.44,0,819.9,0,887.1,101.73,892.85,110.87c.3.46.61.9.93,1.34C900,120.54,959.8,203.32,959.8,311.59Z"/></g></g></svg>