<svg xmlns="http://www.w3.org/2000/svg" viewBox="0 0 2600 2601.84">
  <path d="M1155.58,246.49c-189.29,808.15,312.41,1616.74,1120.57,1806q17.59,4.11,35.29,7.82a1107.91,1107.91,0,0,1-795.07,338c-13.76,0-27.71.5-41.67,0C864.24,2376.8,386.8,1864.49,408.31,1254c16.15-458.31,313.45-859.12,747.37-1007.54M1302.93,5.82a100.06,100.06,0,0,0-17.45,1.6C575.57,133.75,102.49,811.67,228.82,1521.58c107.79,605.69,623.79,1054,1238.6,1076,16.35.6,32.7,0,48.85,0a1303.19,1303.19,0,0,0,1067-553.8a100.71,100.71,0,0,0-78.06-156c-717.43-63-1248-695.59-1185-1413a1303.93,1303.93,0,0,1,73.41-331.34A101.19,101.19,0,0,0,1302.93,5.82Z"/>
</svg>