<svg xmlns="http://www.w3.org/2000/svg" viewBox="0 0 2600 2611.28">
  <path d="M1179.48,198.43l-2.3,4q19.27-2.31,38.72-4Z"/>
  <path d="M2115.77,2333.47a1303.22,1303.22,0,0,1-1181.52,222c-15.46-4.67-31.29-8.82-46.77-14.11-582.24-198.69-946.77-776.89-875-1387.9q6.33-53.91,16.86-106.23c.29-1.45.59-2.9.89-4.34.11-.54.24-1.08.37-1.61A99.51,99.51,0,0,1,226.74,1065a98.29,98.29,0,0,1-1.34,16.29q-.71,3.45-1.37,6.89l0,.11c-109.6,557.27,223.9,1115.27,779.83,1275.15,13.42,3.87,27.09,6.77,40.43,10.11A1108,1108,0,0,0,1866.49,2257c13.52-7.83,12.92-27.51-1-34.64l-.32-.17c-910.89-358.67-1135.29-1239.47-688-2019.79q19.27-2.31,38.72-4l-36.42,0-2.3,4A1105.43,1105.43,0,0,0,505,541.6q-12.43,13.15-24.42,26.73a99.53,99.53,0,0,1-157.77-98.26c.31-1.61.65-3.19,1-4.75a98.78,98.78,0,0,1,15.35-33.64l17.4-18.91C630.24,121.27,1033.81-41.18,1461.41,9a99.43,99.43,0,0,1,17.17,3.51,101.19,101.19,0,0,1,47.12,157.92c-68,91-193,204.59-235.19,310.07-267.5,668.66-111,1351,795.58,1681a100.69,100.69,0,0,1,29.68,171.92Z"/>
</svg>