<svg xmlns="http://www.w3.org/2000/svg" viewBox="0 0 950.43 900.04"><defs><style>.cls-1{fill:#231f20;}</style></defs><g id="Layer_2" data-name="Layer 2"><g id="Layer_9" data-name="Layer 9"><path class="cls-1" d="M950.36,390l.07,120.15H950V755c0,80-65,145-145,145H145C65.05,900,0,835,0,755V640a45,45,0,0,1,90,0V755a55.06,55.06,0,0,0,55,55H805a55.06,55.06,0,0,0,55-55V445a55.17,55.17,0,0,0-.61-8.18l0-46.86.07-54a54.74,54.74,0,0,0-27.19-47.23L503.29,98.28a54.62,54.62,0,0,0-54.5-.07L119.37,287.84A54.76,54.76,0,0,0,92.06,335L92,392.2l-.61,40.64A54.51,54.51,0,0,0,90,445a45,45,0,0,1-44.79,45H45l-1.6,0A45,45,0,0,1,.13,448.5v-.06l.19-13.09L1,391.14l.07-56.25A145.88,145.88,0,0,1,74,209L403.39,19.34a145.89,145.89,0,0,1,145.5.19L877.84,210a145.91,145.91,0,0,1,72.59,126.1Z"/><path class="cls-1" d="M860,445v65.19h-.57l0-73.37A55.17,55.17,0,0,1,860,445Z"/><polygon class="cls-1" points="45.22 293.7 475.21 547.14 905.22 298.2 905.22 404.15 570.61 597.86 905.22 791.57 840.43 860.02 475.21 653.09 117.77 860.02 45.22 796.07 387.59 597.86 45.22 399.65 45.22 293.7"/></g></g></svg>