<svg xmlns="http://www.w3.org/2000/svg" viewBox="0 0 2600 3157.89"><defs><style>.cls-1{fill:none;}</style></defs><g id="Layer_2" data-name="Layer 2"><g id="Layer_9_copy" data-name="Layer 9 copy"><path d="M2505.17,1320.58l-1053-710.93-20.41-14.13a250.23,250.23,0,0,0-263.46,0l-20.41,14.13-1053,710.93A185.5,185.5,0,0,0,1,1481.92v388.64c2,49.37,42.77,88.79,92.84,88.79,49.29,0,89.62-38.2,92.73-86.48V1566.36l952.55,659.19L188.05,2883.72a100.72,100.72,0,0,1-1.48-17.22V1814.62A92.92,92.92,0,0,0,1,1816.94V2966.5c0,.89,0,1.78,0,2.67,1.43,101.26,84,182.9,185.55,182.9H2413.43c101.6,0,184.12-81.64,185.55-182.9,0-.89,0-1.78,0-2.67V1481.92A185.5,185.5,0,0,0,2505.17,1320.58ZM1064.8,1948.29,648.91,1660.56,390.7,1481.92l-90.85-65.27-17.54-12.25,16.32,7.29L1064.8,893,1243.11,769.6l.19-.13a99.67,99.67,0,0,1,113.4,0l.19.13L1535.2,893l766.17,518.73,15.88-7.1-110.66,77.33h2.71l-258.17,178.61,0,0L1936,1671l-.69.49L1535.2,1948.29l-178.31,123.36a100,100,0,0,1-113.78,0ZM390.7,2969.18l3.87-2.68,670.23-463.69,178.31-123.36a100,100,0,0,1,113.78,0l178.31,123.36,670.23,463.69,3.87,2.68ZM2413.43,2866.5a100.72,100.72,0,0,1-1.48,17.22l-951.07-658.17,952.55-659.19Z"/></g><g id="Container"><polygon class="cls-1" points="2600 3157.89 0 2601.84 0 0 2600 556.05 2600 3157.89"/></g></g></svg>