<svg xmlns="http://www.w3.org/2000/svg" viewBox="0 0 914.65 914.65"><defs><style>.cls-1{fill:#231f20;}</style></defs><g id="Layer_2" data-name="Layer 2"><g id="edit_button_alt"><path class="cls-1" d="M70.1,665.24,249.41,844.55l-19.54,19.54q-3.08,3.07-6.31,5.88c-.86.77-1.73,1.51-2.62,2.23A36.92,36.92,0,0,1,206.11,879l-91.18,19.67L44.87,913.79a37,37,0,0,1-44-44L16,799.72l19.67-91.18a36.92,36.92,0,0,1,6.81-14.83c.72-.89,1.46-1.76,2.23-2.62q2.81-3.24,5.88-6.31Z"/><rect class="cls-1" x="51.31" y="320.84" width="831.41" height="253.58" transform="translate(-179.74 461.34) rotate(-45)"/><path class="cls-1" d="M914.65,126.79a126.4,126.4,0,0,1-37.14,89.66l-.27.27L697.93,37.41l.27-.27a126.8,126.8,0,0,1,216.45,89.65Z"/></g></g></svg>