<svg xmlns="http://www.w3.org/2000/svg" viewBox="0 0 2600 2601.84"><defs><style>.cls-1{fill:none;}.cls-2{fill:#010101;}</style></defs><g id="Layer_2" data-name="Layer 2"><g id="Container"><rect class="cls-1" width="2600" height="2601.84"/></g><g id="Edit"><path class="cls-2" d="M94.63,2319.08H2503.37a92.65,92.65,0,0,1,92.65,92.65h0a92.65,92.65,0,0,1-92.65,92.64H94.63A92.64,92.64,0,0,1,2,2411.73H2A92.65,92.65,0,0,1,94.63,2319.08ZM2169.86,744.14c74.11-74.12,74.11-185.29,0-259.41L1836.34,151.22c-74.12-74.12-185.29-74.12-259.4,0L214.41,1513.74a92.65,92.65,0,0,0-27.13,65.51v461.9a92.64,92.64,0,0,0,92.64,92.64h461.9a92.64,92.64,0,0,0,65.51-27.13ZM1772.15,346.43l202.5,202.5a92.63,92.63,0,0,1,0,131L1827.73,826.86a92.65,92.65,0,0,1-131,0l-202.49-202.5a92.65,92.65,0,0,1,0-131l146.91-146.91A92.65,92.65,0,0,1,1772.15,346.43ZM372.57,1855.86v-202.5a92.67,92.67,0,0,1,27.13-65.51l833.8-833.79a92.63,92.63,0,0,1,131,0L1567,956.56a92.65,92.65,0,0,1,0,131L733.22,1921.37a92.64,92.64,0,0,1-65.51,27.14H465.21A92.64,92.64,0,0,1,372.57,1855.86Z"/></g></g></svg>