<svg xmlns="http://www.w3.org/2000/svg" viewBox="0 0 2600 2601.84">
  <path d="M2600,98.71V2501.77c-4.85,52-46.89,93.4-99.71,98.23h-20.74c-52.81-4.83-94.85-46.23-99.7-98.23V98.71C2385,43.35,2432.33,0,2489.92,0S2594.84,43.35,2600,98.71Z"/>
  <path d="M2,1299,544.47,756.51l24.58-24.58A105.82,105.82,0,0,1,697,735.62l16,16a105.82,105.82,0,0,1,2,130.21l0,0L694.7,902.25h0L403.61,1194.13H1795.68a105.55,105.55,0,0,1,.1,209.73H403.61L694.73,1695.8,715,1716.07A105.8,105.8,0,0,1,713,1846.31l-16.13,16.12a105.78,105.78,0,0,1-127.82,3.67Z"/>
</svg>