<svg xmlns="http://www.w3.org/2000/svg" viewBox="0 0 922.61 922.63"><defs><style>.cls-1{fill:#231f20;}</style></defs><g id="Layer_2" data-name="Layer 2"><g id="Exit"><path class="cls-1" d="M639.8,633.19l-6.94,6.94a50.22,50.22,0,0,1-65.3-1.31L460.81,532.08,351.68,641.21a50.3,50.3,0,0,1-58.08,1.67l-14-14a50.3,50.3,0,0,1,1.64-58L390.45,461.71,283.7,355a50.24,50.24,0,0,1-1.38-65.22l7.1-7.1a50.27,50.27,0,0,1,62.47-.92L461.16,391,569.61,282.55A50.25,50.25,0,0,1,639.93,353L531.52,461.37,640.78,570.63A50.26,50.26,0,0,1,639.8,633.19Z"/><path class="cls-1" d="M922.42,461.31A461.32,461.32,0,0,1,36.26,640.86,457.82,457.82,0,0,1,.08,469.34v0C0,466.66,0,464,0,461.31v-6.76a50.51,50.51,0,0,1,46-43.24l57.45,100C127.86,686.92,279,822.53,461.21,822.53c199.17,0,361.21-162,361.21-361.22S660.38,100.1,461.21,100.1c-110.42,0-213.33,49.54-282.36,135.91a361.9,361.9,0,0,0-28.78,41.7c-1.9,3.2-3.73,6.41-5.52,9.66a19.75,19.75,0,0,1-1.82,2.77,50.56,50.56,0,0,1-55,16.45l-7.38-3.06,0,0A50.58,50.58,0,0,1,56,240.81q3.78-6.93,7.78-13.71A463,463,0,0,1,257.91,47.22,461.08,461.08,0,0,1,922.42,461.31Z"/><path class="cls-1" d="M862.61,688.6A461.32,461.32,0,0,0,180,95.67,458,458,0,0,0,64,227.09v0c-1.37,2.28-2.7,4.61-4,6.93l-3.33,5.88a50.51,50.51,0,0,0,18.71,60.29l99.27-58.7C282.4,100.73,480.74,57.21,639.3,147c173.3,98.15,234.45,319,136.3,492.32s-319,234.45-492.31,136.3c-96.08-54.41-161.21-148.23-178.72-257.4a362.86,362.86,0,0,1-4.49-50.47c-.08-3.71-.09-7.42,0-11.13a18.24,18.24,0,0,0-.21-3.3A50.57,50.57,0,0,0,60.06,411.9l-7.93-1h0a50.59,50.59,0,0,0-52,42.59q-.12,7.89,0,15.76A463,463,0,0,0,80.33,721.45,461.64,461.64,0,0,0,742.59,827,458.51,458.51,0,0,0,862.61,688.6Z"/></g></g></svg>