<svg xmlns="http://www.w3.org/2000/svg" viewBox="0 0 838.33 918.31"><g id="Layer_2" data-name="Layer 2"><g id="Following"><path d="M426,200s.05.05.05.08A135.54,135.54,0,1,0,661.12,65.22l0,0A135.54,135.54,0,0,0,426,200Z"/><path d="M545.23,918.31c-276.89,0-302.89-123-298.25-197.41-.35-26.13,16.67-143.5,48.74-231.13,1.72-4.7,3.48-9.32,5.29-13.82.34-.86.68-1.71,1-2.55a333.84,333.84,0,0,1,22-43.84q2.64-4.37,5.39-8.58c47.12-72.23,119.17-108.83,214.29-108.83,98.82,0,172.73,39.5,219.68,117.41C800.9,491.78,814,567,826.73,633,838,691.5,902,918.31,545.23,918.31Z"/><path d="M301,476c-1.81,4.5-3.57,9.12-5.29,13.82,0-.14,0-.27.08-.41a.06.06,0,0,1,0,0Q298.28,482.59,301,476Z"/><path d="M140,156.05s0,0,0,.06A105.75,105.75,0,1,0,323.47,50.89l0,0A105.75,105.75,0,0,0,140,156.05Z"/><path d="M380.23,302.79c-90.88,52.43-161.58,177.79-179.64,335.35q-4.16,36.14-6.54,77.2C-12.95,702.71-4.62,588.17,2.88,540.26c9.26-63.41,21.22-116.73,35.29-157q2.37-6.81,4.84-13.13a3.05,3.05,0,0,1,.13-.32c3.42-8.25,7.21-16.36,11.44-24.24q2.82-5.27,5.9-10.39a208.24,208.24,0,0,1,16-23l0,0c36.56-45.56,88.71-68.61,155.39-68.61C288.81,243.54,345.14,269.52,380.23,302.79Z"/><path d="M43,370.1q-2.46,6.31-4.84,13.13c.08-.48.17-1,.27-1.42a.06.06,0,0,1,0,0Q40.61,375.89,43,370.1Z"/><path d="M76.46,312.18a208.24,208.24,0,0,0-16,23q-3.09,5.13-5.9,10.39c-4.23,7.88-8,16-11.44,24.24C53.32,343.7,64.5,324.16,76.46,312.18Z"/><path d="M329.44,421q-2.76,4.22-5.39,8.58a333.84,333.84,0,0,0-22,43.84C310.3,453.13,319.45,435.08,329.44,421Z"/></g></g></svg>