<svg xmlns="http://www.w3.org/2000/svg" viewBox="0 0 767.57 918.3"><defs><style>.cls-1{fill:#231f20;}</style></defs><g id="Layer_2" data-name="Layer 2"><g id="Follow"><path d="M355.26,200s.05.05.05.08A135.54,135.54,0,1,0,590.36,65.22l0,0A135.54,135.54,0,0,0,355.26,200Z"/><path d="M756,633C743.19,567,730.14,491.78,692.65,429.56,645.7,351.65,571.79,312.15,473,312.15s-172.73,39.5-219.68,117.41a334.35,334.35,0,0,0-22.23,44.38h0q-3.17,7.62-6,15.37a.06.06,0,0,0,0,0,51.08,51.08,0,0,0,8.92,41,51.66,51.66,0,0,0,8.79,9.18l0,0a51,51,0,0,0,74.62-11.35h0Q321,517.81,325.28,508v0A225.24,225.24,0,0,1,339,481.17c28.76-47.73,70.09-69,134-69s105.26,21.29,134,69c28.06,46.57,40.54,112,50.61,169.86,20.88,120.06,23.92,167.34-183.13,167.34s-197.11-29.43-191.63-129c.58-6.4.87-9.55,1.1-14.51h0c0-.8.06-1.6.06-2.41a50.51,50.51,0,0,0-91.73-29.17c-2.77,3.91-8.21,17.89-9.67,29.58-5.15,41.24-64.87,245.47,291.87,245.47S767.27,691.5,756,633Z"/><path class="cls-1" d="M176.48,443.75H169a38.35,38.35,0,0,1-34.55-36V309H32.27A38.39,38.39,0,0,1,0,278.53V263.45A38.41,38.41,0,0,1,32.22,233H134.43V135.21a38.36,38.36,0,0,1,34.47-36h7.67a38.39,38.39,0,0,1,34.23,33.24V233H311.43a38.38,38.38,0,0,1-.05,76H210.8V410.5A38.39,38.39,0,0,1,176.48,443.75Z"/></g></g></svg>