<svg xmlns="http://www.w3.org/2000/svg" viewBox="0 0 2600 2601.84"><defs><style>.cls-1{fill:#010101;}.cls-2{fill:none;}</style></defs><g id="Layer_2" data-name="Layer 2"><g id="Layer_39" data-name="Layer 39"><path class="cls-1" d="M1225.22,1083.5l-930.95,931a107.16,107.16,0,0,0,0,151.55h0a107.16,107.16,0,0,0,151.55,0l779.4-779.4a107.16,107.16,0,0,1,151.55,0l779.4,779.4a107.16,107.16,0,0,0,151.55,0h0a107.16,107.16,0,0,0,0-151.55L1376.77,1083.5A107.16,107.16,0,0,0,1225.22,1083.5ZM109.15,749.72H2492.84A107.16,107.16,0,0,1,2600,856.88v2.18a107.16,107.16,0,0,1-107.16,107.16H109.15A107.16,107.16,0,0,1,2,859.06v-2.18A107.16,107.16,0,0,1,109.15,749.72Z"/></g><g id="Container"><rect class="cls-2" width="2600" height="2601.84"/></g></g></svg>