<svg xmlns="http://www.w3.org/2000/svg" viewBox="0 0 950.43 900.04"><defs><style>.cls-1{fill:#231f20;}</style></defs><g id="Layer_2" data-name="Layer 2"><g id="Layer_8" data-name="Layer 8"><path class="cls-1" d="M950.39,448.44l0,61.74H950V755c0,80-65,145-145,145H145C65.05,900,0,835,0,755V640a45,45,0,0,1,90,0V755a55.06,55.06,0,0,0,55,55H282.75v-21.6a45,45,0,0,1,90,0V810H805a55.06,55.06,0,0,0,55-55V538.44H427.75a55.06,55.06,0,0,0-55,55,45,45,0,0,1-90,0c0-.39,0-.78,0-1.16.62-79.42,65.43-143.84,145-143.84H860V445a55.17,55.17,0,0,0-.61-8.18l0-46.86.07-54a54.74,54.74,0,0,0-27.19-47.23L503.29,98.28a54.62,54.62,0,0,0-54.5-.07L119.37,287.84A54.76,54.76,0,0,0,92.06,335L92,392.2l-.61,40.64A54.51,54.51,0,0,0,90,445a45,45,0,0,1-44.79,45H45l-1.6,0A45,45,0,0,1,.13,448.5v-.06l.19-13.09L1,391.14l.07-56.25A145.88,145.88,0,0,1,74,209L403.39,19.34a145.89,145.89,0,0,1,145.5.19L877.84,210a145.91,145.91,0,0,1,72.59,126.1L950.36,390Z"/><path class="cls-1" d="M860,445v3.4h-.6V436.86A55.17,55.17,0,0,1,860,445Z"/></g></g></svg>