<svg xmlns="http://www.w3.org/2000/svg" viewBox="35.69 174.22 2528.09 2251.56">  <path d="M2563.78,1178.75a86.31,86.31,0,0,1-14.34,47.77l-9.16,11.58a86.75,86.75,0,0,1-116.34,9.31l-.79-.61-84-65.47V2252.58a173.54,173.54,0,0,1-173.2,173.2H434a173.54,173.54,0,0,1-173.2-173.2V1992.23A86.77,86.77,0,0,1,434,2000v252.58H953.6V1992.23a86.77,86.77,0,0,1,173.2,7.77v252.58h346.4v-692.8H1126.8V1590a86.77,86.77,0,0,1-173.2,7.78v-38a173.36,173.36,0,0,1,173.2-173.2h346.4a173.36,173.36,0,0,1,173.2,173.2v692.8H2166V1046.41L1300,370.93,434,1045.55V1590a86.77,86.77,0,0,1-173.2,7.78V1180.56l-85.1,66.35.14-.47a86.78,86.78,0,0,1-109.92-2.65c-1.37-1.18-2.7-2.39-4-3.67L48,1222.54c-.93-1.54-1.81-3.12-2.64-4.72a86.78,86.78,0,0,1,18.45-103.76l4.58-3.57,6.5-5.07L1245.44,192.71a87.47,87.47,0,0,1,107.56,0l1175.92,916.51h0l2.45,1.91A86.59,86.59,0,0,1,2563.78,1178.75Z"></path></svg>