<svg xmlns="http://www.w3.org/2000/svg" viewBox="0 0 918.7 922.8"><defs><style>.cls-1{fill:none;stroke:#fff;stroke-miterlimit:10;stroke-width:1.31px;}.cls-2{fill:#231f20;}</style></defs><g id="Layer_2" data-name="Layer 2"><g id="Log_out" data-name="Log out"><path class="cls-1" d="M423.06,5.3A53.59,53.59,0,0,1,414.48.59Q418.85,2.8,423.06,5.3Z"/><path class="cls-2" d="M748.49,680.35a53.17,53.17,0,0,1-43.32-84.21l0,0L717,584.25h0l21.21-21.36-497.07.29a53.16,53.16,0,0,1,1.11-105l499.5-.29L716.54,432.8,704.63,421a53.17,53.17,0,0,1,74-74.47l11.93,11.84L902.82,469.9A53.78,53.78,0,0,1,903,546L791.49,658.25l0,0-11.84,11.89A52.82,52.82,0,0,1,748.49,680.35Z"/><path d="M0,367.41c0-11,0-18.94,0-22.7,0-1.1,0-2.2,0-3.3,0-.19,0-.37,0-.56A258.46,258.46,0,0,1,258.16,87.92H527.34c93.29,0,175.19,49.73,220.56,124.08q6.06,9.94,11.25,20.46A53.17,53.17,0,0,1,664,277q-2.21-4.38-4.71-8.59a153.26,153.26,0,0,0-132-75.47H258.16A153.29,153.29,0,0,0,105,346.12v42.1a53.5,53.5,0,0,1-105-.54C0,380.15,0,373.34,0,367.41Z"/><path d="M761.22,763.26a53.08,53.08,0,0,1-2.07,15Q754,788.78,747.9,798.72C702.53,873.07,620.63,922.8,527.34,922.8H258.16q-5.49,0-10.92-.23C111.67,916.9,2.76,806.17,0,669.87c0-.19,0-.37,0-.56,0-1.1,0-2.2,0-3.3V637.16c0-4.32,0-9,0-14.12a53.51,53.51,0,0,1,105-5.85V664.6a153.29,153.29,0,0,0,153.2,153.2H527.34a153.26,153.26,0,0,0,132-75.47q2.51-4.22,4.71-8.59a53.17,53.17,0,0,1,97.2,29.52Z"/></g></g></svg>