<svg xmlns="http://www.w3.org/2000/svg" viewBox="0 0 3000 3000"><defs><style>.cls-1{fill:#fff;}</style></defs><g id="Layer_2" data-name="Layer 2"><g id="Edited"><rect class="cls-1" width="3000" height="3000"/><path d="M2697.18,1708.69c-133.73-14.32-140.74-132.82-287.3-141.57a7.31,7.31,0,0,1-4.48-12.69c37.22-34,70.8-69.07,123.29-75.09a7.34,7.34,0,0,0,4.67-12.06c-87.44-103.33-225.27-90-348.12-74a7.31,7.31,0,0,1-5.86-12.66c28.17-25.54,67.31-54.37,107.92-69.59a7.31,7.31,0,0,0-.5-13.83c-342.93-104.09-729.65-11.32-928.3,303.47-.38.6-.78,1.19-1.21,1.76-1.85,2.41-3.9,4.71-6.17,7.21a7.31,7.31,0,0,1-11.25-.51c-6.78-9-12.89-17-19-25.05-.35-.44-.65-.92-1-1.38-126.77-176.59-376.45-182.34-496.68,52.16-4.07,7.94,7,9.29,14,3.87,241-184.56,340.39,22.67,409,115.42,3.84,4.42,3.38,17.87-.53,22.86C1162.36,1897,1050,2010.78,889.37,1973.15c-278.42-53.08-271.09-424-70.07-554.07.5-.32,1-.66,1.46-1,114.2-87.07,292-143.43,343.62-288.88.17-.47.36-.94.54-1.39,11.77-27.58,20.45-30.14,23.85,16.5.57,8-4.34,31.35,11,1.29,6.72-13.12,10.41-36.15,7.14-53.95-1.29-7-3.31-18.82,3-12.22,5,5.28,11.77,20.55,15.84,35.09,1.64,5.83,2.74,20.76,13.11-.32C1351.13,886,992,665,854.89,920.46c-.11.23-.23.45-.32.68-20.93,51.27-120.57-3.23-157.75,30.24-20.09,18.08-6.81,28.9,11.12,34.8.26.09,12.7,2.38,13,2.42,184.55,29.63,310.05,77.64,330.48,61.28,5.18-4.15,4.62,8.27.65,13.57-47.39,63.27-244.36-81.7-347.11-47.76a7.3,7.3,0,0,0-.83,13.52c14.2,6.64,28.71,2.3,69.07,11.3,146.08,32.58,257.82,113,71.27,203.35C101.7,1579.71,716.76,2556.55,1300.22,1962.3c18.54-20.36,36.75-41,53-59.3a7.3,7.3,0,0,1,10.52-.4c64.7,62.14,126.86,124.49,192.18,183.32,171.76,160.82,447,135.73,602.51-34.48.51-.56,2.13-2.34,2.69-2.84,44.44-39.15,98.27-41.77,192.75-61.39,74.82-15.54,122.42-64.62,141.93-95.93a6.11,6.11,0,0,0-5-9.36c-19.25-.35-35.23-.86-68.67-10.5-30.84-8.89-71.66-32.61-67.8-32.79,143.56-6.64,216.11,35,347.62-117.88A7.32,7.32,0,0,0,2697.18,1708.69ZM1023.49,997.75c-15.88-2-25.72-27.36-22-56.56S1021.16,890,1037,892s25.74,27.37,22,56.57S1039.38,999.79,1023.49,997.75Zm775.42,1040.3c-143.61-15.67-293.61-213.31-331.1-261.92l0,0c-.53-.77-10.44-15.4-3.37-28.58l2.51-3.73c91.36-135.18,217.46-280.25,391.75-289.2a10,10,0,0,1,1.1,0C2332.82,1479.46,2179.55,2106.82,1798.91,2038.05Z"/><path d="M2534.87,1573.36a1.68,1.68,0,0,1,.27-3.31c45-4,87.73.38,126.34,28.19,21.57,15.55,27.82,40.87,66.8,41.19,1.3,0,1.16,2.28.09,3-28.45,19.59-80.12,15.9-109.1-14C2594.85,1603.23,2569,1582.06,2534.87,1573.36Z"/><path d="M2340.26,1339.84a3,3,0,0,1-2.15-5.49c26.55-17.24,51.88-25.79,80-10.47,20.51,11.18,44.6,41.9,63.45,38.43,2.15-.4,1.95,3.75-.1,4.54-14.35,5.56-32.13,4-48.35-4.71C2404.42,1346.7,2375.86,1333.41,2340.26,1339.84Z"/></g></g></svg>