<svg xmlns="http://www.w3.org/2000/svg" viewBox="0 0 3000 3000"><defs><style>.cls-1{fill:#f1f2f2;opacity:0;}</style></defs><g id="Layer_2" data-name="Layer 2"><g id="Edited"><circle class="cls-1" cx="1500" cy="1500" r="1500"/><path d="M2891.65,1560.32c-163.65-8.88-179.76-152.64-358.66-153.9a8.9,8.9,0,0,1-6.26-15.16c43.12-43.69,81.72-88.58,145.22-99.26a9,9,0,0,0,4.91-15c-113-120.14-279.87-95.13-428.35-67.73a8.91,8.91,0,0,1-7.93-15c32.64-32.87,78.42-70.46,126.87-91.58,7.8-3.4,6.77-14.76-1.49-16.8-424-104.73-888.61,32.88-1110.22,428.65-.42.76-.87,1.5-1.36,2.22-2.09,3-4.44,6-7.05,9.17a8.91,8.91,0,0,1-13.71.1c-8.83-10.47-16.78-19.88-24.69-29.27q-.66-.79-1.26-1.62c-242.61-332.76-696.43-262.71-744.34,126.13-1.33,10.79,14.08,14.17,17.33,3.8,117.52-374.44,444-160.57,648.4,83.4,5,5.14,5.25,21.53.82,27.86-93.87,151.25-223.36,296.94-421.19,261.42C366.5,1950.94,351.69,1499.11,588,1328c.59-.43,1.16-.88,1.72-1.35,133.38-113.25,346.15-193.2,399.66-373.5.18-.58.36-1.16.57-1.72,12.55-34.31,22.95-38,30.06,18.54,1.22,9.69-3.27,38.43,13.53.88,7.33-16.4,10.36-44.66,5.23-66.11-2-8.38-5.23-22.69,2.84-15.06,6.45,6.1,15.63,24.25,21.52,41.68,2.36,7,4.66,25.09,15.93-1.22C1201.07,645.28,750,399.26,599.42,719c-.13.28-.25.57-.35.85-22.18,63.73-146.92,3.78-190,46.89-23.28,23.28-6.44,35.58,15.77,41.63.32.09,15.6,2.08,15.93,2.12C667.21,834.69,823,885.09,846.82,863.86c6-5.36,6.14,9.79,1.65,16.48-53.62,80-302.58-83.79-425.44-35.92a8.91,8.91,0,0,0-.15,16.51c17.69,7.16,35.09,1,84.77,9.33,179.84,30.29,321,121,99.73,242.89C-275,1569.33,536,2718.69,1207.94,1958.25c21.26-26,42.11-52.26,60.75-75.55a8.9,8.9,0,0,1,12.78-1.16c82.71,71.49,162.34,143.38,245.59,210.79,219.29,184.71,552.66,136.57,731-80.49.58-.71,2.44-3,3.09-3.62,51.59-50.49,116.92-57.11,230.63-87,90-23.69,144.84-86.46,166.58-125.81a7.43,7.43,0,0,0-6.73-11c-23.45.79-42.93,1.2-84.23-8.39-38.1-8.85-89.31-35.11-84.61-35.57,174.27-17.26,265.22,28.73,415.47-165.68A8.92,8.92,0,0,0,2891.65,1560.32Zm-2042-820.23C847,775.86,829,803.68,809.53,802.22s-33.06-31.65-30.37-67.43,20.64-63.59,40.1-62.13S852.32,704.31,849.64,740.09Zm970,1278.46c-179.87-10.12-301.39-187-422.83-301.25-5.54-5.44-8.9-20.85-5.29-26.73,102.84-172.74,248.34-363.42,463.54-385.84a11.92,11.92,0,0,1,1.34,0C2433.61,1304.68,2287.21,2077.89,1819.63,2018.55Z"/><path d="M2685.49,1406a2.05,2.05,0,0,1,.11-4c54.53-7.71,106.78-5.15,155.54,26.23,27.25,17.53,36.47,48,83.92,45.84,1.58-.07,1.56,2.71.3,3.68-33.36,25.65-96.48,24.46-133.65-10.08C2760.38,1438.52,2727.55,1414.42,2685.49,1406Z"/><path d="M2433.74,1134.3a3.67,3.67,0,0,1-3-6.55c31.21-22.68,61.49-34.7,96.67-17.85,25.67,12.29,56.94,48.14,79.66,42.7,2.6-.62,2.61,4.45.17,5.54-17.1,7.68-38.85,6.94-59.14-2.65C2512.24,1138.55,2476.65,1124.19,2433.74,1134.3Z"/></g></g></svg>