<svg xmlns="http://www.w3.org/2000/svg" viewBox="0 0 2705.94 1643.45"><defs><style>.cls-1{fill:#fff;}</style></defs><g id="Layer_2" data-name="Layer 2"><g id="Edited"><path class="cls-1" d="M2671.31,992c-163.65-8.88-179.76-152.64-358.66-153.9a8.9,8.9,0,0,1-6.26-15.16c43.12-43.69,81.72-88.58,145.22-99.26a9,9,0,0,0,4.91-15c-113-120.14-279.87-95.13-428.35-67.73a8.91,8.91,0,0,1-7.93-15c32.64-32.87,78.42-70.46,126.87-91.58,7.8-3.4,6.77-14.76-1.49-16.8-424-104.73-888.61,32.88-1110.21,428.65-.43.75-.87,1.5-1.37,2.22-2.09,3-4.43,6-7,9.17a8.91,8.91,0,0,1-13.71.1L988.6,928.43c-.44-.53-.87-1.07-1.27-1.62C744.72,594.05,290.9,664.09,243,1052.94c-1.33,10.79,14.08,14.17,17.33,3.8,117.52-374.44,444-160.57,648.4,83.4,5,5.14,5.25,21.53.82,27.86-93.87,151.25-223.36,296.94-421.19,261.42-342.19-46.79-357-498.62-120.69-669.75.59-.42,1.16-.87,1.72-1.34C502.77,645.08,715.53,565.12,769.05,384.82c.17-.57.36-1.15.56-1.72,12.55-34.31,22.95-38,30.06,18.55,1.22,9.68-3.26,38.43,13.53.87,7.33-16.39,10.36-44.65,5.24-66.11-2-8.38-5.24-22.69,2.83-15.05,6.45,6.1,15.63,24.25,21.52,41.68,2.37,7,4.67,25.08,15.93-1.22C980.73,77,529.61-169,379.08,150.64c-.13.28-.25.57-.35.85-22.18,63.73-146.92,3.78-190,46.89C165.42,221.66,182.27,234,204.47,240c.32.08,15.6,2.08,15.93,2.12,226.47,24.25,382.26,74.65,406.08,53.42,6-5.37,6.14,9.78,1.65,16.48-53.62,80-302.58-83.79-425.44-35.92a8.91,8.91,0,0,0-.15,16.51c17.7,7.16,35.1,1,84.77,9.33,179.84,30.29,321,121,99.73,242.89C-495.3,1001,315.61,2150.38,987.6,1389.94c21.26-26,42.11-52.26,60.75-75.55a8.9,8.9,0,0,1,12.78-1.16c82.71,71.49,162.34,143.38,245.59,210.79,219.29,184.71,552.66,136.57,731-80.49.58-.71,2.44-3,3.1-3.63,51.58-50.48,116.91-57.1,230.63-87,90-23.69,144.83-86.46,166.57-125.81a7.44,7.44,0,0,0-6.73-11.06c-23.45.8-42.93,1.21-84.23-8.39-38.1-8.84-89.3-35.1-84.61-35.56,174.27-17.26,265.22,28.73,415.47-165.68A8.92,8.92,0,0,0,2671.31,992ZM629.3,171.78c-2.69,35.77-20.65,63.59-40.11,62.13s-33.06-31.65-30.37-67.43,20.64-63.59,40.1-62.13S632,136,629.3,171.78Zm970,1278.45c-179.87-10.12-301.39-187-422.83-301.24-5.54-5.44-8.9-20.85-5.29-26.73C1274,949.52,1419.51,758.84,1634.71,736.42a11.92,11.92,0,0,1,1.34,0C2213.27,736.36,2066.87,1509.58,1599.29,1450.23Z"/><path class="cls-1" d="M2465.15,837.71a2.06,2.06,0,0,1,.11-4.06c54.53-7.7,106.78-5.14,155.54,26.24,27.25,17.53,36.47,47.94,83.92,45.84,1.59-.07,1.57,2.7.31,3.67-33.37,25.65-96.48,24.47-133.66-10.07C2540,870.21,2507.22,846.11,2465.15,837.71Z"/><path class="cls-1" d="M2213.4,566a3.67,3.67,0,0,1-3-6.55c31.2-22.67,61.48-34.69,96.66-17.85,25.67,12.3,56.95,48.14,79.66,42.71,2.6-.62,2.61,4.44.18,5.54-17.11,7.68-38.85,6.94-59.14-2.65C2291.91,570.23,2256.31,555.88,2213.4,566Z"/></g></g></svg>