<svg xmlns="http://www.w3.org/2000/svg" viewBox="0 0 2226.43 1387.63"><g id="Layer_2" data-name="Layer 2"><g id="Edited"><path d="M2194.39,902.51c-133.72-14.33-140.73-132.83-287.3-141.57a7.3,7.3,0,0,1-4.47-12.69c37.22-34,70.79-69.07,123.29-75.1a7.33,7.33,0,0,0,4.66-12c-87.43-103.34-225.26-90-348.12-74a7.3,7.3,0,0,1-5.85-12.66c28.16-25.53,67.3-54.36,107.92-69.59a7.31,7.31,0,0,0-.5-13.83C1441.09,387,1054.37,479.73,855.72,794.52c-.39.6-.78,1.2-1.22,1.77-1.85,2.41-3.89,4.7-6.17,7.2a7.32,7.32,0,0,1-11.25-.5l-19-25c-.34-.45-.64-.93-1-1.38C690.38,600,440.7,594.22,320.46,828.72c-4.07,7.93,7,9.28,14,3.86C575.47,648,674.88,855.25,743.55,948c3.84,4.43,3.37,17.87-.53,22.87-83.45,119.91-195.84,233.72-356.44,196.1-278.42-53.09-271.09-424-70.06-554.07.49-.32,1-.67,1.46-1C432.17,524.8,610,468.44,661.6,323c.16-.47.35-.93.54-1.38C673.9,294,682.59,291.46,686,338.1c.57,8-4.34,31.35,11,1.3,6.72-13.13,10.42-36.15,7.15-53.95-1.29-7-3.32-18.83,3-12.22,5,5.27,11.76,20.55,15.83,35.09,1.64,5.82,2.75,20.76,13.12-.32,112.25-228.18-246.85-449.23-384-193.73-.11.23-.22.46-.32.69C330.86,166.23,231.21,111.73,194,145.2c-20.08,18.08-6.81,28.89,11.13,34.8.26.08,12.7,2.38,13,2.42,184.55,29.63,310,77.64,330.48,61.27,5.17-4.14,4.61,8.28.64,13.57-47.38,63.28-244.36-81.69-347.1-47.76a7.3,7.3,0,0,0-.84,13.52c14.2,6.64,28.72,2.31,69.08,11.3,146.07,32.58,257.81,113,71.27,203.35C-401.09,773.52,214,1750.37,797.43,1156.12c18.54-20.37,36.76-41,53-59.3a7.3,7.3,0,0,1,10.52-.41c64.71,62.15,126.86,124.5,192.19,183.33,171.75,160.81,447,135.72,602.5-34.49.51-.56,2.13-2.33,2.69-2.83,44.45-39.15,98.28-41.77,192.76-61.4,74.81-15.54,122.42-64.61,141.93-95.93a6.11,6.11,0,0,0-5-9.35c-19.24-.36-35.22-.86-68.66-10.5-30.85-8.89-71.67-32.61-67.81-32.8,143.57-6.63,216.12,35,347.62-117.88A7.32,7.32,0,0,0,2194.39,902.51ZM520.71,191.57c-15.88-2-25.73-27.37-22-56.57s19.66-51.23,35.54-49.19,25.73,27.36,22,56.57S536.59,193.6,520.71,191.57Zm775.41,1040.3C1152.52,1216.19,1002.52,1018.56,965,970l0,0c-.53-.76-10.44-15.4-3.38-28.58l2.51-3.72c91.36-135.18,217.47-280.25,391.76-289.2a8.08,8.08,0,0,1,1.1,0C1830,673.28,1676.76,1300.64,1296.12,1231.87Z"/><path d="M2032.09,767.18a1.69,1.69,0,0,1,.27-3.32c45-4,87.72.39,126.33,28.2,21.58,15.54,27.83,40.86,66.8,41.18,1.31,0,1.17,2.29.1,3-28.46,19.58-80.13,15.89-109.1-14C2092.06,797,2066.2,775.88,2032.09,767.18Z"/><path d="M1837.48,533.66a3,3,0,0,1-2.16-5.5c26.55-17.24,51.89-25.79,80-10.46,20.51,11.18,44.59,41.9,63.44,38.42,2.16-.39,2,3.76-.09,4.55-14.35,5.56-32.14,4-48.36-4.72C1901.63,540.52,1873.08,527.23,1837.48,533.66Z"/></g></g></svg>