<svg xmlns="http://www.w3.org/2000/svg" viewBox="0 0 922.42 922.43"><g id="Layer_2" data-name="Layer 2"><g id="New_Post" data-name="New Post"><path d="M922.42,461.21A461.32,461.32,0,0,1,36.26,640.76,457.82,457.82,0,0,1,.08,469.24v0c-.06-2.66-.08-5.34-.08-8v-6.76a50.51,50.51,0,0,1,46-43.24H411.21V214.4a50,50,0,0,1,100,0V411.21H709v.34a50,50,0,0,1,50,50c0,27.62-22.38,49.5-50,49.5a49.71,49.71,0,0,1-5.83.16h-192V704a48.57,48.57,0,0,1-.37,6.06,50,50,0,0,1-99.26,0,48.57,48.57,0,0,1-.37-6.06V511.21H103.44C127.86,686.82,279,822.43,461.21,822.43c199.17,0,361.21-162,361.21-361.22S660.38,100,461.21,100c-110.42,0-213.33,49.54-282.36,135.91a361.9,361.9,0,0,0-28.78,41.7c-1.9,3.19-3.73,6.41-5.52,9.66a19.75,19.75,0,0,1-1.82,2.77,50.56,50.56,0,0,1-55,16.45l-7.38-3.06,0,0A50.58,50.58,0,0,1,56,240.71q3.78-6.93,7.78-13.71A463,463,0,0,1,257.91,47.12,461.08,461.08,0,0,1,922.42,461.21Z"/><path d="M219.23,511.21a50.15,50.15,0,0,1-11.66,0Z"/></g></g></svg>