<svg xmlns="http://www.w3.org/2000/svg" viewBox="0 0 2600 2601.84"><defs><style>.cls-1{fill:none;}</style></defs><g id="Layer_2" data-name="Layer 2"><g id="Container"><rect class="cls-1" width="2600" height="2601.84"/></g><g id="Plus_mediium" data-name="Plus mediium"><path d="M2069.35,1208.13l-581.07-.79h-95.5v-.13L1393.7,532a93.46,93.46,0,0,0-78.27-82h-29.18a93.47,93.47,0,0,0-78.12,80.65l-.92,676.56H531.79a93.43,93.43,0,0,0,.34,185.45h675.09v675.55A93.44,93.44,0,0,0,1377,2109.43c.27-.39.53-.79.79-1.19a92.87,92.87,0,0,0,14.11-38.89l.79-581.07v-95.5h.13l95.3.13h585.55c1.86-.32,3.69-.69,5.51-1.12.58-.13,1.17-.28,1.75-.43s1.08-.28,1.61-.42l.3-.09,1.32-.38c.82-.23,1.62-.48,2.43-.75.46-.14.92-.3,1.38-.46s.8-.27,1.2-.42l1.31-.47.3-.11,1.21-.47c2.51-1,5-2.09,7.36-3.28q.6-.29,1.17-.6a92.15,92.15,0,0,0,10.72-6.47l1-.72c1.38-1,2.73-2,4-3.08.31-.24.61-.48.9-.73l.86-.72c.59-.5,1.17-1,1.74-1.51.4-.35.79-.71,1.18-1.07s.79-.73,1.18-1.1q2.16-2,4.15-4.22l1-1c1-1.13,2-2.28,3-3.47.38-.46.75-.93,1.12-1.4.68-.87,1.35-1.75,2-2.64a91.14,91.14,0,0,0,6.87-11c.27-.51.54-1,.8-1.54s.55-1.07.81-1.62c.18-.35.34-.7.51-1.06l.45-1c.45-1,.88-2,1.29-3,.16-.36.31-.73.46-1.1s.32-.81.47-1.22c.52-1.33,1-2.67,1.44-4,.15-.44.29-.88.43-1.32,0-.14.09-.28.13-.43.12-.38.24-.77.35-1.16.24-.79.46-1.59.67-2.39.17-.62.33-1.25.48-1.87s.3-1.26.44-1.89c.21-.94.41-1.89.58-2.85.08-.35.14-.7.2-1.06.11-.61.21-1.22.31-1.84v-29.18A93.47,93.47,0,0,0,2069.35,1208.13ZM1300.92,556.57a93.57,93.57,0,0,1,14.59,1.14h-29.18A93.57,93.57,0,0,1,1300.92,556.57Zm741.37,758.94v-29.18a93.93,93.93,0,0,1,0,29.18Z"/><path d="M2541,925.35c206.37,686-182.42,1409.32-868.38,1615.68S263.34,2358.61,57,1672.65c-77.49-257.57-71.07-520.43,3.51-759.21q2.79-9,5.73-17.9a93,93,0,0,1,175.66,59q-2,6.27-4,12.57c-64.34,205-70,430.86-3.45,652.14,176.88,588,796.91,921.21,1384.86,744.33s921.21-796.91,744.33-1384.87S1566.69,57.53,978.73,234.41a1109.55,1109.55,0,0,0-348.17,175.9l0,0q-6.52,4.91-13,9.91A93,93,0,0,1,505.24,272.81q6.21-4.81,12.47-9.53A1294.24,1294.24,0,0,1,925.35,57C1611.31-149.39,2334.67,239.4,2541,925.35Z"/></g></g></svg>