<svg xmlns="http://www.w3.org/2000/svg" viewBox="0 0 2600 2601.84"><defs><style>.cls-1{fill:none;}.cls-2{fill:#231f20;}</style></defs><g id="Layer_2" data-name="Layer 2"><g id="Container"><rect class="cls-1" width="2600" height="2601.84"/></g><g id="Notification"><path class="cls-2" d="M2395.24,1597.65l-7.82-7.82-150.57-150.58a140,140,0,0,1-41-99V1077c-.55-441.37-321.34-813.73-751.64-884.12a65.05,65.05,0,0,1-54.62-64.16V87a85,85,0,0,0-85-85h-9.16a85,85,0,0,0-85,85v41.73a65.05,65.05,0,0,1-54.62,64.16C725.5,263.27,404.71,635.63,404.16,1077v263.26a140,140,0,0,1-41,99l-150.5,150.51-.07.07-7.88,7.88-.26.27a249.2,249.2,0,0,0-69,172.49v62c0,127,103,230,230,230H782.47A69.61,69.61,0,0,1,852.08,2132c-.05,2.68-.07,5.37-.07,8,0,231.85,172.38,428.3,403.2,457.71,246.47,24.44,466.08-155.55,490.52-402q2.16-21.81,2.19-43.75v-9.59a80,80,0,0,1,80-80h406.67c127,0,230-103,230-230v-62A249.18,249.18,0,0,0,2395.24,1597.65ZM1318.53,2420.13c-157.92,10.76-287.28-112.25-287.28-270.54a87.16,87.16,0,0,1,87.16-87.17h360.76a89.59,89.59,0,0,1,89.58,89.59C1568.75,2294.21,1458.31,2410.61,1318.53,2420.13ZM404.58,1883.26a90,90,0,0,1-90-90V1782.6a100,100,0,0,1,29.28-70.71l161.06-161.06,52.16-52.16a89.62,89.62,0,0,0,26.25-63.33V1080.66c0-399.22,324.7-724.24,723.89-720.3,392.48,3.88,709.45,323.24,709.45,716.64v358.34a89.6,89.6,0,0,0,26.25,63.33l52.16,52.16,161.06,161.06a100,100,0,0,1,29.28,70.71v10.66a90,90,0,0,1-90,90Z"/></g></g></svg>