<svg xmlns="http://www.w3.org/2000/svg" viewBox="0 0 862.92 918.65"><defs><style>.cls-1{fill:#fff;}</style></defs><g id="Layer_2" data-name="Layer 2"><g id="Bell"><rect x="431.31" y="790.73" width="0.3" height="100"/><path d="M242.49,408.91c0,.81,0,1.61-.06,2.41h0c-.91,4.8-1.82,9.54-2.76,14.22,0,0,0,0,0,0-10.45,52.51-23.14,97.1-52.33,126.3-8.47,8.47-16.52,16.33-23.63,23.27-51.47,50.25-63.7,62.19-63.7,123,0,35.67,27.63,38,71.55,54.59h0q6.1,2.29,12.62,4.49h0a50.51,50.51,0,0,1,8.73,84.1l0,0a50.61,50.61,0,0,1-41.38,10.4h0q-7.35-2.49-14.34-5.1h0c-35.76-13.35-64.86-29.49-86.68-48.07C8.76,763.09,0,724.39,0,698.19c0-103,37.33-139.42,93.84-194.59,7.24-7.07,14.73-14.38,22.78-22.43,2.31-2.31,8.43-10.28,15.43-34.43,3.47-12,6.55-25.73,9.51-40.53v0q1.33-6.66,2.64-13.6h0a49.74,49.74,0,0,1,6.56-12.84,50.5,50.5,0,0,1,91.73,29.17Z"/><path class="cls-1" d="M144.2,392.59q-1.3,6.93-2.64,13.6A49.78,49.78,0,0,1,144.2,392.59Z"/><path class="cls-1" d="M242.43,411.33a49.63,49.63,0,0,1-2.76,14.22C240.61,420.87,241.52,416.13,242.43,411.33Z"/><rect x="431.31" y="790.73" width="0.3" height="100"/><path d="M382.41,50.55a50.49,50.49,0,0,0,6.08,24.06s0,0,0,0a50.56,50.56,0,1,0,87.68-50.31h0a50.56,50.56,0,0,0-93.77,26.23Z"/><path class="cls-1" d="M189.55,210.44q-3.17,7.62-6,15.37A50.31,50.31,0,0,1,189.55,210.44Z"/><path class="cls-1" d="M283.77,244.49a50.41,50.41,0,0,1-7.89,20.19Q279.54,254.3,283.77,244.49Z"/><path d="M862.92,698.19c0,26.2-8.76,64.9-50.49,100.43-21.82,18.58-50.92,34.72-86.68,48.07q-7,2.63-14.38,5.11A50.61,50.61,0,0,1,670,841.4l0,0a50.52,50.52,0,0,1,8.77-84.11q6.53-2.19,12.63-4.49c43.92-16.55,71.55-23.7,71.55-54.59,0-60.85-12.23-72.79-63.7-123-7.11-6.94-15.16-14.8-23.63-23.27-36-36-46.91-95.5-59.5-164.36-10.57-57.79-22.55-123.29-50.61-169.86-28.76-47.73-70.09-69-134-69s-105.26,21.29-134,69a225.24,225.24,0,0,0-13.66,26.81v0q-4.25,9.8-7.89,20.19h0A51,51,0,0,1,201.26,276l0,0a51.66,51.66,0,0,1-8.79-9.18,51.08,51.08,0,0,1-8.92-41,.06.06,0,0,1,0,0q2.85-7.76,6-15.37h0a334.35,334.35,0,0,1,22.23-44.38c47-77.91,120.86-117.41,219.68-117.41s172.73,39.5,219.68,117.41c37.49,62.22,51.21,137.27,63.32,203.48,5.24,28.69,10.2,55.78,16.41,77.21,7,24.15,13.12,32.12,15.43,34.43,8.05,8.05,15.54,15.36,22.78,22.43C825.59,558.77,862.92,595.22,862.92,698.19Z"/><path class="cls-1" d="M691.37,752.78q-6.11,2.29-12.63,4.49A49.7,49.7,0,0,1,691.37,752.78Z"/><path class="cls-1" d="M725.75,846.69a49.87,49.87,0,0,1-14.38,5.11Q718.73,849.31,725.75,846.69Z"/><path class="cls-1" d="M151.52,851.79a49.61,49.61,0,0,1-14.34-5.1Q144.19,849.32,151.52,851.79Z"/><path class="cls-1" d="M184.18,757.27q-6.52-2.19-12.62-4.49A50,50,0,0,1,184.18,757.27Z"/><path d="M512.35,759.8c50.46,0,78.87,58.29,47.52,97.83l-.64.81c-29.71,37-76,60.21-127.92,60.21s-98.21-23.23-127.92-60.21l-.64-.81c-31.35-39.54-2.94-97.83,47.52-97.83Z"/></g></g></svg>