<svg xmlns="http://www.w3.org/2000/svg" viewBox="0 0 591.81 918.3"><g id="Layer_2" data-name="Layer 2"><g id="Bell_copy" data-name="Bell copy"><path d="M179.49,200s.06.05.06.08a135.53,135.53,0,1,0,235-134.87l0,0A135.54,135.54,0,0,0,179.49,200Z"/><path d="M580.2,633C567.43,567,554.37,491.78,516.88,429.56,469.93,351.65,396,312.15,297.2,312.15S124.47,351.65,77.52,429.56a334.35,334.35,0,0,0-22.23,44.38h0q-3.16,7.62-6,15.37a.06.06,0,0,0,0,0,51.08,51.08,0,0,0,8.92,41A51.66,51.66,0,0,0,67,539.53l0,0a51,51,0,0,0,74.62-11.35h0q3.66-10.38,7.89-20.19v0a225.24,225.24,0,0,1,13.66-26.81c28.76-47.73,70.09-69,134-69s105.26,21.29,134,69c28.06,46.57,40.55,112,50.61,169.86,20.88,120.06,23.92,167.34-183.13,167.34s-197.11-29.43-191.62-129c.58-6.4.86-9.55,1.09-14.51h0c0-.8.06-1.6.06-2.41A50.51,50.51,0,0,0,16.5,643.25c-2.77,3.91-8.21,17.89-9.67,29.58C1.69,714.07-58,918.3,298.7,918.3S591.51,691.5,580.2,633Z"/></g></g></svg>