<svg xmlns="http://www.w3.org/2000/svg" viewBox="0 0 2600 2601.84"><defs><style>.cls-1{fill:none;}.cls-2{fill:#010101;}.cls-3{stroke:#e61e25;stroke-miterlimit:10;}</style></defs><g id="Layer_2" data-name="Layer 2"><g id="Container"><rect class="cls-1" width="2600" height="2601.84"/></g><g id="Profile"><path class="cls-2" d="M1299,557.85c-255.82,0-463.21,207.39-463.21,463.22s207.39,463.22,463.21,463.22,463.22-207.39,463.22-463.22S1554.83,557.85,1299,557.85Zm0,741.15c-153.49,0-277.93-124.43-277.93-277.93S1145.51,743.14,1299,743.14s277.94,124.44,277.94,277.93C1576.78,1174.51,1452.44,1298.85,1299,1299Z"/><path class="cls-3" d="M1299,2C1014.57,2,751.53,93.54,537.73,248.8q-13.79,10-27.28,20.34A93,93,0,0,0,622.18,414.53q11.45-8.82,23.08-17.28c414.18-301.69,996.52-284.94,1394.25,70.19,458,408.94,497.74,1111.72,88.79,1569.71a1110.26,1110.26,0,0,1-88.79,88.79h-.1c-3.84-252.81-209.63-455.88-462.47-456.36H1021.07c-252.84.48-458.63,203.55-462.48,456.36C203.5,1808.87,99.83,1315.15,261.78,895.86q4.16-10.77,8.56-21.46A93,93,0,0,0,99.16,805.56q-4.59,11.13-9,22.37A1293.44,1293.44,0,0,0,2,1299c0,716.33,580.69,1297,1297,1297s1297-580.69,1297-1297C2595.2,583,2015,2.81,1299,2Zm555.87,2258.38a1102.38,1102.38,0,0,1-1111.73,0V2132.8c.15-153.43,124.5-277.78,277.93-277.93h555.87c153.43.15,277.77,124.5,277.93,277.93Z"/></g></g></svg>