<svg xmlns="http://www.w3.org/2000/svg" viewBox="73.1 139.9 2525.91 2319.2">  <path d="M2393.74,1351.45,1300,2459.1,206.26,1351.45A716.22,716.22,0,0,1,86,1188.37q-2-3.75-4-7.53a92.91,92.91,0,0,1-8.9-38.85c0-.32,0-.65,0-1s0-.67,0-1a93.35,93.35,0,0,1,173.76-46.4q1.94,3.71,3.93,7.39a528.65,528.65,0,0,0,88.11,118.72L1300,2192.86l961.08-973.14c202.75-205.84,202.75-536.31,0-742.15a507.41,507.41,0,0,0-726.38,1.86L1300,718.77l-235.63-241.2q-3.24-3.29-6.53-6.53c-200.33-196.72-522.2-193.79-718.92,6.53a529.54,529.54,0,0,0-79.21,103q-4.24,7.18-8.21,14.47A93.27,93.27,0,0,1,89.39,504.53a.05.05,0,0,1,0,0q4.61-8.34,9.44-16.6A717.18,717.18,0,0,1,206.26,347.7q4.05-4.11,8.16-8.16C488,70.46,927.94,74.11,1197,347.7l103,103.9,103-103.9a694.39,694.39,0,0,1,990.77,0C2667.43,626.31,2667.43,1072.84,2393.74,1351.45Z"></path></svg>