<svg xmlns="http://www.w3.org/2000/svg" viewBox="0 0 960.9 767.98"><defs><style>.cls-1{fill:#231f20;}</style></defs><g id="Layer_2" data-name="Layer 2"><g id="Relay_button"><path class="cls-1" d="M346.39,382.42A219.42,219.42,0,1,1,552.81,763.85c-4,1.43-8,2.73-12.15,3.92a32.42,32.42,0,0,1-17.85-61.36c2.88-.84,5.75-1.76,8.59-2.77a155.09,155.09,0,0,0,42-22.73C641.65,629,655,531.19,603,462.91s-149.72-81.58-218-29.66-81.58,149.72-29.66,218a154.6,154.6,0,0,0,71.35,52.23q4.88,1.75,9.86,3.16a32.41,32.41,0,0,1-19.37,61q-5.16-1.5-10.21-3.26A219.6,219.6,0,0,1,288.84,447.86,218,218,0,0,1,346.39,382.42Z"/><path class="cls-1" d="M790,435.64A36.32,36.32,0,0,1,773,431.37a35.94,35.94,0,0,1-11.06-9.05h0c-2.64-5.54-5.43-11-8.29-16.13-1.83-3.32-3.73-6.67-5.64-9.91l-.09-.15C691,302.71,588.16,244.68,479.42,244.68a312.78,312.78,0,0,0-273,161.46c-2.85,5.14-5.64,10.58-8.29,16.13h0a36.42,36.42,0,0,1-63.32-32.59h0c2.42-5,5-10.05,7.66-15A383.7,383.7,0,0,1,445,175.39c10.24-.92,20.83-1.42,31.48-1.5,1.16,0,2.33,0,3.5,0l3.51,0c10.66.08,21.24.59,31.47,1.5A384.16,384.16,0,0,1,778.15,315.66c17.56,21.7,30.85,41,40.61,59.12,2.65,4.89,5.22,9.92,7.65,15h0c2.22,8.13.76,17.34-4.2,26.63A36.36,36.36,0,0,1,790,435.64Z"/><path class="cls-1" d="M919.68,347.74a39.95,39.95,0,0,1-29.87-13.55c-3.65-7.61-7.5-15.06-11.43-22.16-2.66-4.82-5.43-9.69-8.23-14.44l-.08-.14C787.28,161.35,637.42,76.8,479,76.8c-74.87,0-146.79,18.09-213.75,53.77A452.24,452.24,0,0,0,81.2,312c-3.92,7.08-7.76,14.52-11.42,22.12A39.85,39.85,0,0,1,4.7,326.59a39.48,39.48,0,0,1-3.56-28.12c3.22-6.63,6.61-13.24,10.1-19.69a534.38,534.38,0,0,1,54.75-82A533.12,533.12,0,0,1,431.25,2.11c14.2-1.27,28.9-2,43.69-2.08l4.9,0,4.83,0C499.5.14,514.2.84,528.4,2.12A533.19,533.19,0,0,1,893.63,196.79c24.45,30.21,42.9,57.05,56.4,82,3.49,6.44,6.88,13.05,10.1,19.68,2.46,10.51-1.44,21.05-5.23,28.13a39.79,39.79,0,0,1-35.21,21.09Z"/></g></g></svg>