<svg xmlns="http://www.w3.org/2000/svg" viewBox="0 0 960.37 786.27"><defs><style>.cls-1{fill:#231f20;}</style></defs><g id="Layer_2" data-name="Layer 2"><g id="Relays_alt"><path class="cls-1" d="M924.57,479.56a121.83,121.83,0,0,1-86.43,35.8h0A23.35,23.35,0,0,1,814.77,492V294.26a23.35,23.35,0,0,1,23.36-23.35h0a122.22,122.22,0,0,1,86.43,208.65Z"/><path class="cls-1" d="M924.57,747.74a121.83,121.83,0,0,1-86.43,35.8h0a23.36,23.36,0,0,1-23.35-23.36V562.43a23.36,23.36,0,0,1,23.36-23.35h0a122.23,122.23,0,0,1,86.43,208.66Z"/><path class="cls-1" d="M924.57,208.65a121.83,121.83,0,0,1-86.43,35.8h0a23.35,23.35,0,0,1-23.35-23.35V23.35A23.35,23.35,0,0,1,838.13,0h0a122.22,122.22,0,0,1,86.43,208.65Z"/><path class="cls-1" d="M801.48,26.86A26.85,26.85,0,0,0,774.62,0H26.86A26.85,26.85,0,0,0,0,26.86V217.6a26.85,26.85,0,0,0,26.86,26.86H774.62a26.85,26.85,0,0,0,26.86-26.85ZM73.66,85.45a25,25,0,1,1,25-25A25,25,0,0,1,73.66,85.45Zm68.07,0a25,25,0,1,1,25-25A25,25,0,0,1,141.73,85.45Z"/><path class="cls-1" d="M801.48,297.76a26.85,26.85,0,0,0-26.86-26.85H26.86A26.86,26.86,0,0,0,0,297.77V488.51a26.86,26.86,0,0,0,26.86,26.86H774.62a26.85,26.85,0,0,0,26.86-26.86ZM73.66,356.36a25,25,0,1,1,25-25A25,25,0,0,1,73.66,356.36Zm68.07,0a25,25,0,1,1,25-25A25,25,0,0,1,141.73,356.36Z"/><path class="cls-1" d="M801.48,568.67a26.86,26.86,0,0,0-26.86-26.86H26.86A26.85,26.85,0,0,0,0,568.67V759.41a26.85,26.85,0,0,0,26.86,26.86H774.62a26.86,26.86,0,0,0,26.86-26.86ZM73.66,627.26a25,25,0,1,1,25-25A25,25,0,0,1,73.66,627.26Zm68.07,0a25,25,0,1,1,25-25A25,25,0,0,1,141.73,627.26Z"/></g></g></svg>