<svg xmlns="http://www.w3.org/2000/svg" viewBox="0 0 960.9 776.53"><defs><style>.cls-1{fill:#231f20;}</style></defs><g id="Layer_2" data-name="Layer 2"><g id="Relay_button"><path class="cls-1" d="M653.87,424.25A219.43,219.43,0,1,1,272.44,630.68c-1.43-4-2.73-8.06-3.92-12.15a32.41,32.41,0,0,1,58-23.31,32.75,32.75,0,0,1,3.36,5.46c.84,2.88,1.76,5.75,2.77,8.59a154.89,154.89,0,0,0,22.73,42c51.93,68.28,149.72,81.59,218,29.66S655,531.19,603,462.91s-149.72-81.58-218-29.66a154.63,154.63,0,0,0-52.23,71.34q-1.76,4.89-3.16,9.87a32.41,32.41,0,0,1-61-19.38c1-3.43,2.09-6.84,3.26-10.2a219.39,219.39,0,0,1,381.91-60.63Z"/><path class="cls-1" d="M790,435.64A36.32,36.32,0,0,1,773,431.37a35.94,35.94,0,0,1-11.06-9.05h0c-2.64-5.54-5.43-11-8.29-16.13-1.83-3.32-3.73-6.67-5.64-9.91l-.09-.15C691,302.71,588.16,244.68,479.42,244.68a312.78,312.78,0,0,0-273,161.46c-2.85,5.14-5.64,10.58-8.29,16.13h0a36.42,36.42,0,0,1-63.32-32.59h0c2.42-5,5-10.05,7.66-15A383.7,383.7,0,0,1,445,175.39c10.24-.92,20.83-1.42,31.48-1.5,1.16,0,2.33,0,3.5,0l3.51,0c10.66.08,21.24.59,31.47,1.5A384.16,384.16,0,0,1,778.15,315.66c17.56,21.7,30.85,41,40.61,59.12,2.65,4.89,5.22,9.92,7.65,15h0c2.22,8.13.76,17.34-4.2,26.63A36.36,36.36,0,0,1,790,435.64Z"/><path class="cls-1" d="M919.68,347.74a39.95,39.95,0,0,1-29.87-13.55c-3.65-7.61-7.5-15.06-11.43-22.16-2.66-4.82-5.43-9.69-8.23-14.44l-.08-.14C787.28,161.35,637.42,76.8,479,76.8c-74.87,0-146.79,18.09-213.75,53.77A452.24,452.24,0,0,0,81.2,312c-3.92,7.08-7.76,14.52-11.42,22.12A39.85,39.85,0,0,1,4.7,326.59a39.48,39.48,0,0,1-3.56-28.12c3.22-6.63,6.61-13.24,10.1-19.69a534.38,534.38,0,0,1,54.75-82A533.12,533.12,0,0,1,431.25,2.11c14.2-1.27,28.9-2,43.69-2.08l4.9,0,4.83,0C499.5.14,514.2.84,528.4,2.12A533.19,533.19,0,0,1,893.63,196.79c24.45,30.21,42.9,57.05,56.4,82,3.49,6.44,6.88,13.05,10.1,19.68,2.46,10.51-1.44,21.05-5.23,28.13a39.79,39.79,0,0,1-35.21,21.09Z"/></g></g></svg>