<svg xmlns="http://www.w3.org/2000/svg" viewBox="0 0 2600 2601.84">
  <path d="M2582.59,648.87a369.56,369.56,0,0,0-715.62,1.3H1477C1426,244.47,1055.86-43.11,650.17,7.84a738.1,738.1,0,0,0-267.1,87.07Q371,101.6,359.25,108.74a93.5,93.5,0,0,0,95.35,159q9.38-5.7,19-11a553,553,0,0,1,269.16-69.45c306.82,0,555.54,248.72,555.54,555.53-.36,306.67-248.87,555.18-555.54,555.54-306.81,0-555.53-248.72-555.53-555.54a558.39,558.39,0,0,1,8.56-97.67q1.47-8.34,3.2-16.6a93.51,93.51,0,0,0-180.3-43q-3.45,15.94-6.21,32.11a740,740,0,0,0-4.63,217C50,1170.4,314.43,1434.83,650.17,1477v390c-198,51.14-317.15,253.14-266,451.19s253.14,317.14,451.18,266,317.15-253.14,266-451.19a370.37,370.37,0,0,0-266-266V1477.08a736.22,736.22,0,0,0,360.92-150L1536,1666.89a366,366,0,0,0-52.5,186.94c0,204.54,165.81,370.35,370.36,370.35s370.35-165.81,370.35-370.35-165.81-370.36-370.35-370.36a365.8,365.8,0,0,0-186.94,52.5l-339.8-339.81a736.06,736.06,0,0,0,150.08-360.82h389.9c51.49,197.59,253.41,316,451,264.53S2634.08,846.45,2582.59,648.87ZM927.93,2224.18a185.17,185.17,0,0,1-185.18,185.18c-102.27,0-185.17-82.9-185.17-185.18A185.17,185.17,0,0,1,742.75,2039C845,2039.11,927.83,2122,927.93,2224.18Zm925.9-555.53c102.23.1,185.07,82.95,185.18,185.18S1956.1,2039,1853.83,2039s-185.18-82.91-185.18-185.18S1751.56,1668.65,1853.83,1668.65Zm370.35-740.72C2121.91,927.93,2039,845,2039,742.75a185.17,185.17,0,0,1,185.17-185.17c102.28,0,185.18,82.9,185.18,185.17A185.36,185.36,0,0,1,2224.18,927.93Z"/>
</svg>