<svg xmlns="http://www.w3.org/2000/svg" viewBox="0 0 2600 2601.84"><g id="Layer_2" data-name="Layer 2"><g id="Comment_reverse" data-name="Comment reverse"><path fill="#010101" d="M1035.3,1950.35H373.56C168.9,1950.35,3,1784.44,3,1579.78V929a92.63,92.63,0,0,1,93.64-91.83c51,.53,91.64,42.82,91.64,93.78v648.85c0,102.33,83,185.29,185.29,185.29H844.89a145.68,145.68,0,0,1,126.47,73.39Z"/><path fill="#010101" d="M1266.39,2378.85A93.14,93.14,0,0,1,1095,2429.38l-5.15-9-267.9-470H1035.3L1250,2326.1l7.76,13.58A92.76,92.76,0,0,1,1266.39,2378.85Z"/><path fill="#010101" d="M2597,468.05V1579.77c0,204.66-165.91,370.58-370.57,370.58H1485.19a92.64,92.64,0,0,1-92.55-88.41v-8.48a92.64,92.64,0,0,1,92.55-88.4h741.25c102.33,0,185.29-83,185.29-185.29V468.05c0-102.34-83-185.29-185.29-185.29H373.56c-102.33,0-185.29,82.95-185.29,185.29V558.2A92.64,92.64,0,0,1,3,559V468.05C3,263.38,168.9,97.47,373.56,97.47H2226.44C2431.1,97.47,2597,263.38,2597,468.05Z"/><rect fill="#010101" x="555.98" y="651.84" width="1482.76" height="185.29" rx="92.64"/><rect fill="#010101" x="555.98" y="951.84" width="1482.76" height="185.29" rx="92.64"/><rect fill="#010101" x="555.98" y="1251.84" width="1093.53" height="185.29" rx="92.64"/></g></g></svg>