<svg xmlns="http://www.w3.org/2000/svg" viewBox="0 0 2600 2601.84"><defs><style>.cls-1{fill:none;}</style></defs><g id="Layer_2" data-name="Layer 2"><g id="Container"><rect class="cls-1" width="2600" height="2601.84"/></g><g id="share"><path d="M3.9,1132.67a83.11,83.11,0,0,1,18.63-52.57L468.38,634.26,908,1073.86c.36.34.71.7,1.06,1.06a83.14,83.14,0,0,1,.87,115.63l-.46.48-1.89,1.88-.47.46a83.17,83.17,0,0,1-114.75,0l-.47-.46L790,1191l-.46-.48-238-238v762.69h914.7a83.15,83.15,0,1,1,0,166.3H551.53a166.47,166.47,0,0,1-166.31-166.3V952.57L150.55,1187.24l-8.6,8.6a83.48,83.48,0,0,1-138-63.17Z"/><path d="M2596,1467.14a83.11,83.11,0,0,1-18.63,52.57l-445.85,445.84-439.61-439.61c-.36-.33-.71-.69-1.06-1a83.14,83.14,0,0,1-.87-115.63l.46-.48,1.89-1.88.47-.46a83.17,83.17,0,0,1,114.75,0l.47.46,1.89,1.88.46.48,238,238V884.55h-914.7a83.16,83.16,0,0,1,0-166.31h914.7A166.48,166.48,0,0,1,2214.7,884.55v762.69l234.67-234.67,8.6-8.6A83.48,83.48,0,0,1,2596,1467.14Z"/></g></g></svg>