<svg xmlns="http://www.w3.org/2000/svg" viewBox="0 0 959.89 652.72"><g id="Layer_2" data-name="Layer 2"><g id="Layer_11" data-name="Layer 11"><path d="M659.7,612.22c0-19.29,14.53-39.5,31.53-39.5h1.27a116.6,116.6,0,0,0,100.55-57.51q1.91-3.21,3.59-6.54c9.35-14.79,19.6-17.81,33.56-17.81a40.5,40.5,0,0,1,40.5,40.5c0,51.15-83,120.86-169.13,120.86C680.34,652.22,659.7,633.76,659.7,612.22Z"/><path d="M0,332.36a40.3,40.3,0,0,1,7.69-23.75l9-9,0,0L102,214.28a41,41,0,0,1,58,0l85.27,85.27,9.05,9.06a40.51,40.51,0,0,1-56.57,56.56l-9-9.05L169.53,337V456A116.87,116.87,0,0,0,286.26,572.72H579.17c16.26,0,31.53,20.21,31.53,39.5a40.5,40.5,0,0,1-40.5,40.5H286.26c-107.49,0-195.14-86.68-196.7-193.8,0-1,0-1.95,0-2.93V339.9L73.31,356.11h0l-9,9s0,0,0,0A40.51,40.51,0,0,1,0,332.36Z"/><path d="M300.19,40.5c0,19.29-14.53,39.5-31.53,39.5h-1.27a116.6,116.6,0,0,0-100.55,57.51q-1.91,3.21-3.59,6.54c-9.35,14.79-19.6,17.81-33.56,17.81a40.5,40.5,0,0,1-40.5-40.5C89.19,70.21,172.2.5,258.31.5,279.55.5,300.19,19,300.19,40.5Z"/><path d="M959.89,320.36a40.3,40.3,0,0,1-7.69,23.75l-9,9,0,0-85.27,85.27a41,41,0,0,1-58,0l-85.27-85.27-9-9.06a40.51,40.51,0,0,1,56.57-56.56l9,9.05,19.17,19.16v-119A116.87,116.87,0,0,0,673.63,80H380.72c-16.26,0-31.53-20.21-31.53-39.5A40.5,40.5,0,0,1,389.69,0H673.63c107.49,0,195.14,86.68,196.7,193.8,0,1,0,1.95,0,2.93V312.82l16.22-16.21h0l9-9,0,0a40.51,40.51,0,0,1,64.26,32.81Z"/></g></g></svg>