<svg xmlns="http://www.w3.org/2000/svg" viewBox="0 0 2600 2601.84">
  <path d="M1976.74,1657.38q-14.82.67-29.81.68h-1296v-.68Z"/>
  <path d="M2086.78,377.22q-9.86-2.18-19.81-4a106.69,106.69,0,0,0-11.79-.64,108.48,108.48,0,0,0-108.25,101.23v14.54c.19,2.9.5,5.76.91,8.59,0-1.07.1-2.13.17-3.18V498a108.59,108.59,0,0,0,75.5,86.86q10,1.8,19.93,4.07c194.41,44.5,339.2,220.52,335.43,429.11-4.27,235.86-198.5,424-434.39,424H650.91v.17H417.22l233.69-234.35,71.57-71.77a109.66,109.66,0,0,0,10.87-10.9,108,108,0,0,0-81.73-178.6h-.71a107.54,107.54,0,0,0-73.24,29.28l-4.76,4.76L3.79,1549.76H3.71l0,0,0,0h.08L572.91,2119l4.76,4.76A107.54,107.54,0,0,0,650.91,2153h.71a108,108,0,0,0,81.73-178.6l-10.87-10.9-71.57-71.77L417.22,1657.38H1976.74c179.5-8.16,340.17-89.65,452.69-215.16,102.87-114.74,165.51-266.26,165.51-432.17C2594.94,700.67,2377.14,441.32,2086.78,377.22Zm-18.73,15.91a107.05,107.05,0,0,1,19.81,4Q2078,395,2068.05,393.13Z"/>
  <path d="M1947.84,496.9c0-1.07.1-2.13.17-3.18V498C1948,497.62,1947.89,497.26,1947.84,496.9Z"/>
  <path d="M2087.86,397.17q-9.86-2.18-19.81-4A107.05,107.05,0,0,1,2087.86,397.17Z"/>
  <path d="M1948,493.72v14.54c-.17-2.4-.25-4.83-.25-7.27,0-1.37,0-2.73.08-4.09C1947.88,495.83,1947.94,494.77,1948,493.72Z"/>
  <path d="M2087.86,397.17q-9.86-2.18-19.81-4A107.05,107.05,0,0,1,2087.86,397.17Z"/>
</svg>