<svg xmlns="http://www.w3.org/2000/svg" viewBox="0 0 2609.59 2602.23"><defs><style>.cls-1{fill:none;}</style></defs><g id="Layer_2" data-name="Layer 2"><g id="Layer_20" data-name="Layer 20"><path d="M2605.61,2251.51A1461.34,1461.34,0,0,1,2594,2430.38a89.43,89.43,0,0,1-70.65,76.91l-17.88,2.68a89.43,89.43,0,0,1-78.7-44.72,1358.46,1358.46,0,0,0-1162.61-670.73v536.59a90,90,0,0,1-152.93,63.49L38,1321.43A89.44,89.44,0,0,1,37.52,1195l.51-.52,313-313,4.52-4.52A90,90,0,0,1,489.24,996.32L227.63,1257.93l857.65,857.65V1705.09a89.43,89.43,0,0,1,89.43-89.43h44.71a1575.79,1575.79,0,0,1,1207.33,536.58c-55.58-670.15-589.59-1200.75-1260.09-1252a89.41,89.41,0,0,1-81.38-89.43V400.28L843.92,641.64a90,90,0,0,1-133-120.09l18.46-18.46,381.83-381.83a90,90,0,0,1,152.93,63.49V731.18C2029.48,829.48,2603.37,1479.89,2605.61,2251.51Z"/></g><g id="Container"><polygon class="cls-1" points="2609.59 2602.23 9.59 2592.68 0 0 2600 11.39 2609.59 2602.23"/></g></g></svg>