<svg xmlns="http://www.w3.org/2000/svg" viewBox="0 0 960.07 917.57"><defs><style>.cls-1{fill:#231f20;}</style></defs><g id="Layer_2" data-name="Layer 2"><g id="Search_button"><rect class="cls-1" x="-64.87" y="661.03" width="542.87" height="99.93" rx="49.97" transform="translate(-442.25 354.31) rotate(-45)"/><path class="cls-1" d="M960.07,343.59A343.6,343.6,0,1,1,289,239.35q3-9.51,6.63-18.87A50.75,50.75,0,0,1,390,246.41a51.36,51.36,0,0,1-1,10q-2.53,6.57-4.69,13.33a242.43,242.43,0,0,0-11.45,73.86c0,134.32,109.28,243.6,243.6,243.6s243.59-109.28,243.59-243.6S750.79,100,616.48,100a242.1,242.1,0,0,0-132.72,39.42q-6.81,4.43-13.29,9.3a50.76,50.76,0,0,1-57.62-81.93q6.75-5,13.74-9.62A343.52,343.52,0,0,1,960.07,343.59Z"/></g></g></svg>