<svg xmlns="http://www.w3.org/2000/svg" viewBox="1.98 3.83 2558.76 2558.51">  <path d="M2560.74,2465.84a96.11,96.11,0,0,1-22.21,61.59l-12.71,12.71a96.52,96.52,0,0,1-124.67-1.27l-.07-.06-9.81-9.81-.06-.07-652.79-652.79c-392.58,327-962.69,327-1355.27,0C69.49,1614.86-54.85,1210.6,26,837.48c.33-1.56.68-3.12,1-4.68a98,98,0,0,1,191.5,41.79q-.67,3-1.32,6h0a867.56,867.56,0,0,0-19.57,183.74c.53,477.42,387.43,864.32,864.85,864.85,477.64,0,864.85-387.21,864.85-864.85s-387.21-864.85-864.85-864.85c-217.61,0-416.44,80.37-568.44,213.05q-4.69,4.08-9.32,8.25A98.77,98.77,0,0,1,348.94,278.7q10.11-9.21,20.41-18.09c385-332.77,965.24-347.87,1369.07-11.5C2187.71,623.36,2248.54,1291,1874.3,1740.26l665.25,665.25A96,96,0,0,1,2560.74,2465.84Z"></path></svg>