<svg xmlns="http://www.w3.org/2000/svg" viewBox="0 0 2600 2601.84"><defs><style>.cls-1{fill:none;}.cls-2{fill:#010101;}</style></defs><g id="Layer_2" data-name="Layer 2"><g id="Container"><rect class="cls-1" width="2600" height="2601.84"/></g><g id="Relay"><path class="cls-2" d="M261.59,849.85H2338.41c143.31.14,259.46,116.29,259.6,259.6v307.71c-.14,143.31-116.29,259.46-259.6,259.6H261.59C118.28,1676.62,2.13,1560.47,2,1417.16V1109.45C2.13,966.14,118.28,850,261.59,849.85Zm2180.79,521.27V1157.76c0-72-55.67-130.31-124.35-130.31H277.72c-68.67,0-124.34,58.34-124.34,130.31v213.36c0,72,55.67,130.31,124.34,130.31H2318C2386.71,1501.43,2442.38,1443.09,2442.38,1371.12Z"/><path class="cls-2" d="M261.59.46H2338.41c143.31.15,259.46,116.29,259.6,259.61V482.73c-.14,143.31-116.29,259.46-259.6,259.6H261.59C118.28,742.19,2.13,626,2,482.73V260.07C2.13,116.75,118.28.61,261.59.46ZM2442.38,436.69V308.37c0-72-55.67-130.3-124.35-130.3H277.72c-68.67,0-124.34,58.34-124.34,130.3V436.69c0,72,55.67,130.3,124.34,130.3H2318C2386.71,567,2442.38,508.65,2442.38,436.69Z"/><path class="cls-2" d="M261.59,1774.43H2338.41c143.31.14,259.46,116.28,259.6,259.6V2340.4c-.14,143.31-116.29,259.46-259.6,259.6H261.59C118.28,2599.86,2.13,2483.71,2,2340.4V2034C2.13,1890.71,118.28,1774.57,261.59,1774.43Zm2180.79,519.93v-212c0-72-55.67-130.3-124.35-130.3H277.72c-68.67,0-124.34,58.34-124.34,130.3v212c0,72,55.67,130.31,124.34,130.31H2318C2386.71,2424.67,2442.38,2366.33,2442.38,2294.36Z"/><circle class="cls-2" cx="309" cy="414.42" r="93"/><circle class="cls-2" cx="309" cy="1354.57" r="93"/><circle class="cls-2" cx="309" cy="2282.13" r="93"/></g></g></svg>