<svg xmlns="http://www.w3.org/2000/svg" viewBox="0 0 2600 2601.84">
  <path d="M1950.64,1673.19a463.4,463.4,0,0,0-360.53,175.16L912.61,1424.8a413.39,413.39,0,0,0,0-244.68l677.5-423.55c160.8,199.11,452.57,230.16,651.68,69.36S2472,373.37,2311.16,174.26s-452.57-230.17-651.68-69.37a463.41,463.41,0,0,0-172.24,363.44,443.69,443.69,0,0,0,18.53,122.34l-677.5,423.55C688.86,838.72,448,791.29,255.67,889.14q-7.14,3.61-14.18,7.52A93.52,93.52,0,0,0,331,1060.3q5.18-2.94,10.5-5.65a276.79,276.79,0,0,1,126.2-30.23c153.56,0,278,124.48,278,278s-124.48,278-278,278c-152.1,0-275.67-122.12-278-273.67,0-1.45,0-2.91,0-4.37q0-4,.12-8A94,94,0,0,0,2,1297.26l0,3.94a461.46,461.46,0,0,0,100.57,289.5c159.19,200.4,450.7,233.81,651.09,74.62a463.22,463.22,0,0,0,74.62-74.62l677.5,423.55a443.69,443.69,0,0,0-18.53,122.34c0,255.94,207.47,463.41,463.4,463.41s463.41-207.47,463.41-463.41S2206.58,1673.19,1950.64,1673.19Zm0-1482.91c153.56,0,278,124.49,278,278s-124.49,278-278,278-278-124.48-278-278S1797.08,190.28,1950.64,190.28Zm0,2224.36c-153.56,0-278-124.49-278-278s124.48-278,278-278,278,124.48,278,278S2104.2,2414.64,1950.64,2414.64Z"/>
</svg>