<svg xmlns="http://www.w3.org/2000/svg" viewBox="0 0 835.67 918.7"><defs><style>.cls-1{fill:#231f20;}</style></defs><g id="Layer_2" data-name="Layer 2"><g id="Layer_12" data-name="Layer 12"><path class="cls-1" d="M593.22,170.21A53.17,53.17,0,0,1,509,213.53l0,0-11.87-11.82h0l-21.35-21.21.29,497.07a53.16,53.16,0,0,1-105-1.11l-.29-499.5-25.08,25.22-11.84,11.92a53.17,53.17,0,0,1-74.47-74l11.84-11.93L382.77,15.88a53.79,53.79,0,0,1,76.1-.22L571.12,127.21s0,0,0,0L583,139.08A52.88,52.88,0,0,1,593.22,170.21Z"/><path d="M835.67,391.35V660.53c0,141.08-113.77,256.11-254.35,258.16-1.29,0-323.74,0-323.74,0A257.36,257.36,0,0,1,76.37,844.24l-1.92-1.92A257.66,257.66,0,0,1,2.73,698.65Q1,687.18.39,675.39a53.16,53.16,0,0,1,104.18-7.11,154.54,154.54,0,0,0,153.62,146H414.41l-.61-.61,163.67,0a153.27,153.27,0,0,0,153.2-153.2V391.35a153.23,153.23,0,0,0-75.48-132q-4.22-2.5-8.58-4.71a53.18,53.18,0,0,1,44.52-95.13q10.51,5.17,20.46,11.25C785.94,216.17,835.67,298.07,835.67,391.35Z"/><path d="M.39,675.39Q1,687.17,2.73,698.65A53,53,0,0,1,0,681.81,52.33,52.33,0,0,1,.39,675.39Z"/><path d="M106.31,681.81c0,.87,0,1.73-.07,2.58a152.57,152.57,0,0,1-1.67-16.11A53.44,53.44,0,0,1,106.31,681.81Z"/><path d="M212.43,210.63a53.15,53.15,0,0,1-23.37,44.05q-4.38,2.2-8.59,4.71a153.25,153.25,0,0,0-75.48,132v41.06A53.16,53.16,0,0,1,0,420.63V391.35C0,298.07,49.73,216.17,124.08,170.8q9.95-6.06,20.46-11.25a53.19,53.19,0,0,1,67.89,51.08Z"/><path d="M106.31,420.63A52.65,52.65,0,0,1,105,432.41V408.86A52.62,52.62,0,0,1,106.31,420.63Z"/></g></g></svg>