<svg xmlns="http://www.w3.org/2000/svg" viewBox="0 0 960.96 966.77"><defs><style>.cls-1{fill:none;stroke:#fff;stroke-miterlimit:10;stroke-width:1.39px;}.cls-2{fill:#231f20;}</style></defs><g id="Layer_2" data-name="Layer 2"><g id="Layer_12" data-name="Layer 12"><path class="cls-1" d="M447.51,961.16a56.22,56.22,0,0,0-9.08,5Q443.05,963.81,447.51,961.16Z"/><path d="M158.27,725.68a161.5,161.5,0,0,0,114.86,47.86H438.37l-.65-.65H272.47A161.49,161.49,0,0,1,158.27,725.68Z"/><path d="M333.2,784.66,335,655.27C335.42,506.05,456.13,384.73,604.84,383c1.36,0,2.71,0,4.07,0l161.16.5L747.64,360.9h0l-12.5-12.56s0,0,0,0A56.24,56.24,0,0,1,813.86,270l12.51,12.58s0,0,0,0l118,118.73a56.93,56.93,0,0,1-.24,80.5l-118.74,118-12.62,12.53a56.24,56.24,0,0,1-78.28-78.78l12.61-12.51,26.68-26.53-165.25-.51C519.22,493.78,446.3,566.26,446,655.61L444.26,785Z"/><path class="cls-2" d="M805.21,168.48A56.24,56.24,0,0,1,702.39,200c-1.55-3.08-3.22-6.11-5-9.08a162.11,162.11,0,0,0-139.59-79.84H273.09A162.17,162.17,0,0,0,111,273.11v25A56.22,56.22,0,0,1,0,309c0-10,0-18.43,0-25,0-9.35,0-14.77,0-14.93C2.18,120.33,123.86,0,273.09,0H557.82c98.68,0,185.3,52.6,233.3,131.25q6.4,10.51,11.89,21.64A56.2,56.2,0,0,1,805.21,168.48Z"/><path class="cls-2" d="M111.06,296.49c0,.56,0,1.1,0,1.65v-3.31C111.05,295.38,111.06,295.94,111.06,296.49Z"/><path class="cls-2" d="M805.21,715.47a56.2,56.2,0,0,1-2.2,15.59q-5.47,11.12-11.89,21.64C743.12,831.35,656.5,884,557.82,884H272.47A272.19,272.19,0,0,1,80.8,805.19c-.68-.66-1.36-1.34-2-2A272.25,272.25,0,0,1,0,611.49s0-33.93,0-80.42c0-8,0-16.3,0-24.91a56.23,56.23,0,0,1,110.42,4V610.84a163.39,163.39,0,0,0,162.71,162.7H438.37l-.65-.65h120.1a162.11,162.11,0,0,0,139.59-79.84c1.76-3,3.43-6,5-9.08a56.24,56.24,0,0,1,102.82,31.5Z"/><path class="cls-2" d="M111.06,518.61a56.29,56.29,0,0,1-.64,8.47V510.15A56.26,56.26,0,0,1,111.06,518.61Z"/></g></g></svg>