<svg xmlns="http://www.w3.org/2000/svg" viewBox="0 0 932.82 858.06"><defs><style>.cls-1{fill:none;stroke:#fff;stroke-miterlimit:10;}</style></defs><g id="Layer_2" data-name="Layer 2"><g id="Layer_12" data-name="Layer 12"><path class="cls-1" d="M572.07,287.81a40.55,40.55,0,0,0-9,9Z"/><path d="M541.48,0H265.09C120.23,0,2.11,116.81,0,261.17c0,1.32,0,332.41,0,332.41A264.26,264.26,0,0,0,76.46,779.65c.65.66,1.31,1.32,2,2a264.22,264.22,0,0,0,186.06,76.45h277c95.79,0,179.88-51.06,226.47-127.4q6.22-10.21,11.55-21a54.6,54.6,0,0,0-97.68-45.71q-2.27,4.48-4.84,8.81a157.34,157.34,0,0,1-135.5,77.5H424.9l.63.64H265.13A158.59,158.59,0,0,1,107.19,593V432.54l.63.64,0-168.06A157.41,157.41,0,0,1,265.09,107.81H541.48A157.36,157.36,0,0,1,677,185.31q2.57,4.32,4.84,8.81a54.6,54.6,0,0,0,97.68-45.71q-5.32-10.78-11.55-21C721.36,51.06,637.27,0,541.48,0Z"/><path d="M323.44,761.68l1.71-125.6c.45-144.85,117.62-262.61,262-264.27,1.32,0,2.63,0,4,0l156.44.48-21.78-21.93h0L713.6,338.13s0,0,0,0a54.59,54.59,0,0,1,76.46-76l12.14,12.21,0,0L916.76,389.59a55.26,55.26,0,0,1-.24,78.14L801.26,582.29,789,594.45A54.59,54.59,0,0,1,713,518l12.24-12.15,25.89-25.75-160.4-.49C504,479.32,433.23,549.68,433,636.41L431.25,762Z"/></g></g></svg>