<svg xmlns="http://www.w3.org/2000/svg" viewBox="0 0 2601.73 2601.84"><defs><style>.cls-1{fill:none;}</style></defs><g id="Layer_2" data-name="Layer 2"><g id="Sign_out"><path d="M2601.73,281.76V456.38a93.51,93.51,0,0,1-185.29,12.74V281.76a92.65,92.65,0,0,0-92.65-92.64H897.36a92.65,92.65,0,0,0-92.65,92.64v92.65a92.65,92.65,0,0,1-185.29,0V281.76c0-153.5,124.44-277.93,277.94-277.93H2323.79C2477.29,3.83,2601.73,128.26,2601.73,281.76Z"/><path d="M2601.73,1127.65V2319.93c0,153.49-124.44,277.93-277.94,277.93H897.36c-153.5,0-277.94-124.44-277.94-277.93v-92.65a92.65,92.65,0,0,1,185.29,0v92.65a92.65,92.65,0,0,0,92.65,92.64H2323.79a92.65,92.65,0,0,0,92.65-92.64v-1205a93.51,93.51,0,0,1,185.29,12.74Z"/><path d="M12,1300.84,491.28,821.57,513,799.85a93.49,93.49,0,0,1,113,3.26l14.15,14.15a93.48,93.48,0,0,1,1.79,115s0,0,0,0l-17.93,18h0L366.84,1208.19H1596.68a93.25,93.25,0,0,1,.09,185.29H366.84L624,1651.39l17.87,17.91a93.47,93.47,0,0,1-1.69,115.06L626,1798.61A93.47,93.47,0,0,1,513,1801.85Z"/></g><g id="Container"><polygon class="cls-1" points="2600 2601.84 0 2601.84 0 0 2600 1.84 2600 2601.84"/></g></g></svg>