<svg xmlns="http://www.w3.org/2000/svg" viewBox="9.92 141.4 2594.08 2318.33">  <path d="M473.14,1259a92.63,92.63,0,0,1-91.84,92.63H287.85a94.64,94.64,0,0,0-11.86.75c-1.55.2-3.09.44-4.62.71-.76.14-1.52.28-2.28.44-1.11.22-2.2.47-3.29.74-1.63.39-3.24.84-4.84,1.32-.46.13-.91.28-1.36.43s-1,.31-1.46.48c-2.16.72-4.28,1.53-6.35,2.41s-4.11,1.82-6.11,2.85a92.51,92.51,0,0,0-23.33,17q-2,2-3.81,4T215,1387q-1.38,1.76-2.67,3.57c-.43.6-.85,1.21-1.27,1.83-.83,1.23-1.64,2.48-2.41,3.76s-1.52,2.56-2.23,3.88-1.39,2.64-2,4a90.08,90.08,0,0,0-4.27,10.45c-.49,1.44-.94,2.89-1.36,4.35a93.06,93.06,0,0,0-3.51,25.36v92.65a92.65,92.65,0,0,1-185.29,0v-92.65q0-12.77,1.13-25.24.29-3.15.64-6.29A277.39,277.39,0,0,1,106,1234.06c1.68-1.45,3.37-2.88,5.09-4.3h0q2.57-2.12,5.19-4.18c1-.81,2.06-1.61,3.1-2.4.59-.45,1.19-.91,1.79-1.35,1-.78,2.06-1.54,3.1-2.3q5.94-4.32,12.1-8.34,3.12-2,6.3-4,1.08-.67,2.16-1.32,3.76-2.27,7.62-4.42A276,276,0,0,1,190,1184q2.75-1,5.52-2a277.51,277.51,0,0,1,92.37-15.72H380.5A92.66,92.66,0,0,1,473.14,1259Z"></path>  <path d="M1306.44,141.4l479.27,479.26,21.72,21.72a93.49,93.49,0,0,1-3.26,113L1790,769.55a93.52,93.52,0,0,1-115,1.79s0,0,0,0l-18-17.93s0,0,0,0L1399.09,496.21V1726.05a93.25,93.25,0,0,1-185.29.1V496.21L955.89,753.41,938,771.28a93.51,93.51,0,0,1-115.06-1.69l-14.25-14.25a93.47,93.47,0,0,1-3.24-112.93Z"></path>  <path d="M473.14,1259a92.63,92.63,0,0,1-91.84,92.63H287.86a93.05,93.05,0,0,0-11.87.76c-1.55.2-3.09.43-4.62.71-.76.14-1.52.28-2.28.44-1.11.22-2.2.47-3.29.74-1.63.39-3.24.84-4.84,1.32-.46.13-.91.28-1.36.43s-1,.31-1.46.48c-2.16.72-4.28,1.53-6.35,2.41s-4.11,1.82-6.11,2.85a92.51,92.51,0,0,0-23.33,17q-2,2-3.81,4T215,1387q-1.36,1.76-2.67,3.57c-.43.6-.85,1.21-1.27,1.83q-1.25,1.85-2.41,3.76t-2.23,3.88q-1.06,2-2,4a90.08,90.08,0,0,0-4.27,10.45c-.49,1.44-.94,2.89-1.36,4.35a93.06,93.06,0,0,0-3.51,25.36v92.65a92.65,92.65,0,0,1-185.29,0v-92.65q0-12.77,1.13-25.24.29-3.15.64-6.29A277.39,277.39,0,0,1,106,1234.06c1.68-1.45,3.37-2.88,5.09-4.3h0c1.71-1.41,3.44-2.81,5.19-4.18,1-.81,2.06-1.61,3.1-2.4.59-.45,1.19-.91,1.79-1.35,1-.78,2.06-1.54,3.1-2.3q5.94-4.32,12.1-8.34,3.12-2,6.3-4,1.08-.67,2.16-1.32,3.76-2.27,7.62-4.42A276,276,0,0,1,190,1184q2.75-1,5.52-2a277.51,277.51,0,0,1,92.37-15.72H380.5A92.66,92.66,0,0,1,473.14,1259Z"></path>  <path d="M2604,1444.23v736.44c0,153.5-124.43,277.93-277.93,277.93H287.85c-153.5,0-277.93-124.43-277.93-277.93V2007.18a93.51,93.51,0,0,1,185.29-12.74V2181.8a92.65,92.65,0,0,0,92.65,92.64h736.43a92,92,0,0,0,14.47-1.13h734.46q-3-.55-6.12-.93l372,.85-.44.08H2326a92.64,92.64,0,0,0,92.64-92.64V1444.23a92.64,92.64,0,0,0-92.64-92.64h-92.65a92.65,92.65,0,0,1,0-185.3H2326C2479.52,1166.29,2604,1290.73,2604,1444.23Z"></path>  <path d="M1049.52,2458.6q-12.46,1.13-25.23,1.13H287.86c-153.5,0-277.94-124.43-277.94-277.93v-1.13c0,153.5,124.43,277.93,277.93,277.93Z"></path>  <path d="M196.81,2011.72a93.73,93.73,0,0,1-1.6,17.28v-34.56A93.73,93.73,0,0,1,196.81,2011.72Z"></path></svg>