<svg xmlns="http://www.w3.org/2000/svg" viewBox="0 0 2600 2601.84">
  <path d="M1300,187.28c248.54,0,451.36,195.74,462.72,441.47,12.83,277.54-206.92,497.29-484.47,484.47C1032.52,1101.86,836.78,899,836.78,650.5c0-255.83,207.39-463.22,463.22-463.22M1300,2C941.84,2,651.49,292.34,651.49,650.5S941.84,1299,1300,1299s648.51-290.34,648.51-648.5S1658.16,2,1300,2Zm833.79,2594h0a92.65,92.65,0,0,1-92.64-92.65V2137.6c0-258.48-209.54-468-468-468H1026.87c-258.48,0-468,209.54-468,468v365.77A92.65,92.65,0,0,1,466.21,2596h0a92.65,92.65,0,0,1-92.65-92.65V2137.6c0-360.81,292.5-653.31,653.31-653.31h546.26c360.81,0,653.31,292.5,653.31,653.31v365.77A92.65,92.65,0,0,1,2133.79,2596Z"/>
</svg>