<svg xmlns="http://www.w3.org/2000/svg" viewBox="0 0 538.57 918.05"><defs><style>.cls-1{fill:#231f20;}</style></defs><g id="Layer_2" data-name="Layer 2"><g id="Layer_10" data-name="Layer 10"><path class="cls-1" d="M528.11,387.33,138.58,900.56a45,45,0,0,1-79-39.63l88.1-314.64h-97A50,50,0,0,1,.05,494.18h0v0a41.32,41.32,0,0,1,1.64-9.87l67.05-215.5,1.1-3.71a40.4,40.4,0,0,1,79,14.81c0,.08-4.63,15.72-4.63,15.72L90.7,465.7H253.37L185.19,709.22,427.48,386.78H198.67L363.62,80H212.13l-21.3,59.16-4.58,15.38a40.51,40.51,0,0,1-75.53-26.67L113,120.1l27.3-79.29A50,50,0,0,1,189.48,0H413.67a50,50,0,0,1,45.16,71.47L458,73.14,332.09,306.78H488.52a50,50,0,0,1,39.59,80.55Z"/></g></g></svg>