<svg xmlns="http://www.w3.org/2000/svg" viewBox="0 0 2600 2601.84"><defs><style>.cls-1{fill:none;}</style></defs><g id="Layer_2" data-name="Layer 2"><g id="Zap"><path d="M2164.5,980.55,957.5,2558.94a92.89,92.89,0,0,1-73.35,40.85,101.08,101.08,0,0,1-36.21-7.43A92.84,92.84,0,0,1,792.23,2493l169-1100.23H512.76a92.82,92.82,0,0,1-92.84-114.2L546.71,729.16l2.77-12a94.44,94.44,0,0,1,183.64,42.31l-2.87,12.41-100.5,435.25h548.72l-147.63,954.46L1905.46,1021.4H1418l185.7-835.62H865.58L822.85,370.85l-2.77,12A94.43,94.43,0,0,1,636.6,339.6L639,329.07,698.45,71.58A92.85,92.85,0,0,1,791.3.09h928.47a93,93,0,0,1,91,113.27L1650.13,835.71h441a90,90,0,0,1,73.35,144.84Z"/></g><g id="Container"><rect class="cls-1" width="2600" height="2601.84"/></g></g></svg>