<svg xmlns="http://www.w3.org/2000/svg" viewBox="0 0 606.81 919.15"><defs><style>.cls-1{fill:#231f20;}</style></defs><g id="Layer_2" data-name="Layer 2"><g id="zap"><path class="cls-1" d="M598.16,380.24l-.07.08L191.67,900.68a39.69,39.69,0,0,1-30,18.3h0a40,40,0,0,1-38.78-20.59h0a39.72,39.72,0,0,1-1.76-34.93L225.58,532.88H40.91A40.94,40.94,0,0,1,9.73,465.42l95.86-112.74,4-4.66a39.18,39.18,0,0,1,17.89-12.16,40.54,40.54,0,0,1,52.77,37.25c0,.54,0,1.06,0,1.59a38.88,38.88,0,0,1-9.48,24.84l-5.21,6.13-40.14,47.21H334.77l-71.5,226.17L485.74,394.2h-215l57.89-180.39-54.41,64L268.18,285a38.8,38.8,0,0,1-28.06,13.88l-1.38,0a40.33,40.33,0,0,1-40.5-39.58A40.75,40.75,0,0,1,200,246.47a40.29,40.29,0,0,1,8-14.18l2.4-2.83L394.5,14.39a40.93,40.93,0,0,1,70.15,39L380.47,314.2H565.83a40.93,40.93,0,0,1,32.33,66Z"/></g></g></svg>